<?xml version="1.0" encoding="utf-8" ?>
<svg xmlns="http://www.w3.org/2000/svg" xmlns:xlink="http://www.w3.org/1999/xlink" width="250" height="250">
	<path fill="#0A274C" transform="scale(0.5 0.5)" d="M89.3186 171.053C88.546 170.865 87.44 170.747 86.9195 170.125L87.125 169.544C87.8926 169.043 88.6614 168.745 89.518 168.425L89.7135 169.095L89.5479 169.357C89.3131 169.821 89.2269 170.536 89.3186 171.053Z"/>
	<path fill="#0A274C" transform="scale(0.5 0.5)" d="M167.245 146.836L169 146.788C170.147 146.829 171.559 146.923 172.375 147.791C172.521 148.325 172.601 148.765 172.318 149.28C171.896 150.046 171.267 150.238 170.479 150.464L165.875 150.486C165.22 150.415 164.99 150.226 164.567 149.749C164.453 148.764 164.501 148.363 165.002 147.5C165.699 147.059 166.449 146.978 167.245 146.836Z"/>
	<path fill="#0A274C" transform="scale(0.5 0.5)" d="M328.567 146.832L330.75 146.768C331.958 146.837 332.749 146.949 333.573 147.875C333.79 148.484 333.69 148.768 333.505 149.375C332.706 150.138 332.343 150.186 331.254 150.465L327.25 150.482C326.408 150.422 326.15 150.277 325.598 149.657C325.494 148.797 325.43 148.344 325.875 147.58C326.731 147.019 327.574 146.961 328.567 146.832Z"/>
	<path fill="#02294C" transform="scale(0.5 0.5)" d="M207.299 148.791C207.331 148.385 207.221 147.895 207.583 147.637C208.85 146.737 229.699 147.232 232.875 147.227L238.406 147.222C239.37 147.225 240.475 147.131 241.41 147.392C242.088 147.582 242.043 147.81 242.391 148.383L242.216 149.025C241.911 148.919 242.084 149.002 241.704 148.668L241.377 148.375L223.61 147.919C221.702 147.905 219.834 148.192 217.94 148.197L210.841 147.96C209.84 147.958 208.866 147.835 207.998 148.407C207.68 148.616 207.858 148.525 207.504 148.697L207.299 148.791Z"/>
	<path fill="#0A274C" transform="scale(0.5 0.5)" d="M164.597 120.125C166.116 119.719 166.298 120.961 167.462 121.382C168.353 121.704 169.865 121.534 170.714 121.186C171.084 120.663 171.314 120.324 171.875 119.986C172.611 120 172.963 119.856 173.51 120.375L173.499 126.875C173.385 127.45 173.295 127.499 172.875 127.921L171.75 127.724C171.11 127.077 171.067 125.706 170.917 124.825L164.556 124.981C164.318 123.254 164.355 121.836 164.597 120.125Z"/>
	<path fill="#0A274C" transform="scale(0.5 0.5)" d="M182.638 147.375C184.728 146.92 187.471 147.221 189.625 147.213C191.988 147.204 194.855 146.896 197.167 147.3C197.898 147.428 197.904 147.535 198.279 148.125C198.287 148.574 198.328 148.971 198.122 149.383C197.779 150.067 197.554 150.06 196.875 150.322C194.642 150.693 192.148 150.488 189.883 150.493C187.684 150.497 185.306 150.682 183.125 150.479C182.312 150.404 182.13 150.258 181.625 149.632C181.547 149.049 181.461 148.609 181.704 148.047C181.902 147.592 182.217 147.574 182.638 147.375Z"/>
	<path fill="#02294C" transform="scale(0.5 0.5)" d="M326.323 120.125C327.714 119.575 329.376 120.933 330.948 120.479L331.271 120.375C332.066 120.206 333.011 120.141 333.732 120.543C334.542 121.841 334.366 123.223 334.097 124.644C333.908 125.646 333.815 127.4 333 127.956L332.24 127.625C331.356 127.275 330.857 126.059 330.125 125.385C329.332 125.548 329.284 126.121 328.8 126.731C328.148 127.552 327.362 127.603 326.375 127.719C326.224 127.502 326.181 127.468 326.094 127.177C325.709 125.89 325.732 121.314 326.323 120.125Z"/>
	<path fill="#0A274C" transform="scale(0.5 0.5)" d="M298.563 147.375C300.146 146.988 302.316 147.226 303.968 147.222C307.272 147.215 310.713 147.02 314 147.281C314.703 147.337 315.274 147.454 315.757 148C315.776 148.32 315.799 148.406 315.729 148.75C315.576 149.492 314.986 149.9 314.375 150.236C313.192 150.624 311.744 150.472 310.501 150.479L302.625 150.496C301.311 150.501 299.218 150.797 298.038 150.338C297.729 150.218 297.515 149.943 297.417 149.625C297.211 148.954 297.394 148.359 297.625 147.734L298.563 147.375Z"/>
	<path fill="#0A274C" transform="scale(0.5 0.5)" d="M302.491 119.625C304.587 119.326 306.983 119.526 309.116 119.501C309.366 122.152 309.482 125.248 308.824 127.834L302.312 127.929C302.08 126.013 301.558 121.164 302.491 119.625Z"/>
	<path fill="#0A274C" transform="scale(0.5 0.5)" d="M190.244 119.519L197.575 119.486L197.507 125.573C197.493 125.97 197.575 126.952 197.445 127.25C197.328 127.518 197.065 127.696 196.875 127.919C195.022 128.057 192.157 128.244 190.378 127.748C189.957 125.048 190.08 122.238 190.244 119.519Z"/>
	<path fill="#0A274C" transform="scale(0.5 0.5)" d="M207.299 148.791L207.504 148.697C207.858 148.525 207.68 148.616 207.998 148.407C208.866 147.835 209.84 147.958 210.841 147.96L217.94 148.197C219.834 148.192 221.702 147.905 223.61 147.919L241.377 148.375L241.704 148.668C242.084 149.002 241.911 148.919 242.216 149.025C241.911 149.645 241.803 149.872 241.153 150.144C239.707 150.749 209.452 150.835 207.875 150.253C207.351 149.698 207.397 149.561 207.299 148.791Z"/>
	<path fill="#0A274C" transform="scale(0.5 0.5)" d="M226.663 103.573C228.981 103.325 231.237 103.461 233.5 104.009C235.122 104.401 236.661 104.925 238.111 105.77C239.571 106.622 242.152 108.374 242.559 110L242.125 110.545C241.699 110.727 241.379 110.831 240.906 110.832C240.239 110.834 239.654 110.302 239.125 109.959C238.051 109.264 236.899 108.585 235.724 108.069C233.829 107.236 231.719 107.043 229.711 106.607L229.349 106.552C228.417 106.433 227.248 106.75 226.329 106.93C222.211 107.739 219.823 109.317 216.641 111.875C215.951 111.835 215.831 111.755 215.245 111.375C214.971 110.785 214.961 110.652 215.005 110C217.535 106.497 222.559 104.267 226.663 103.573Z"/>
	<path fill="#02294C" transform="scale(0.5 0.5)" d="M269.152 103.58C270.401 103.27 272.555 103.407 273.839 103.655C276.276 104.125 278.64 104.897 280.726 106.28C281.766 106.969 284.27 108.847 284.533 110C284.326 110.803 284.221 110.905 283.625 111.494C283.427 111.49 282.769 111.548 282.625 111.476C282.189 111.259 281.623 110.628 281.216 110.312C280.233 109.548 279.139 108.862 277.982 108.397L277.625 108.258C275.883 107.568 274.127 107.125 272.302 106.733C269.438 106.279 264.752 107.776 262.305 109.206C261.02 109.957 259.896 110.943 258.625 111.723C257.858 111.642 257.7 111.626 257.08 111.18C257.02 110.472 256.907 110.254 257.368 109.667C260.122 106.155 264.882 104.202 269.152 103.58Z"/>
	<path fill="#0A274C" transform="scale(0.5 0.5)" d="M275.392 147.253C277.895 147.159 286.802 146.607 288.625 147.787C288.758 148.323 288.81 148.741 288.517 149.25C288.1 149.972 287.483 150.296 286.682 150.426C283.906 150.878 280.407 150.501 277.537 150.499L261.148 150.498C258.927 150.5 255.56 150.962 253.5 150.199C252.913 149.369 253.008 149.157 253.017 148.17L253.277 147.817C253.649 147.55 253.941 147.365 254.403 147.297C256.486 146.992 258.874 147.212 260.982 147.213L275.392 147.253Z"/>
	<path fill="#02294C" transform="scale(0.5 0.5)" d="M253.277 147.817C253.649 147.55 253.941 147.365 254.403 147.297C256.486 146.992 258.874 147.212 260.982 147.213L275.392 147.253C271.168 148.155 265.871 147.627 261.5 147.625C262.209 147.815 264.685 147.552 264.999 147.879C262.208 148.09 259.195 147.835 256.461 148.272C255.905 148.361 255.35 148.339 254.789 148.319L254.626 147.938C254.108 147.921 254.011 147.956 253.548 148.194L253.277 147.817Z"/>
	<path fill="#02294C" transform="scale(0.5 0.5)" d="M89.518 168.425L89.8019 168.291C91.4105 167.499 92.8829 166.343 93.4541 164.582C94.1266 162.508 94.579 160.553 95.5249 158.564C96.8953 161.88 97.9466 166.68 101.594 168.191L105.725 169.936C103.626 170.9 100.828 171.791 99.2658 173.505C98.2562 174.613 97.6106 176.221 97.0887 177.602L95.7745 181.526C93.251 177.089 94.8549 174.07 89.4696 171.313L89.3186 171.053C89.2269 170.536 89.3131 169.821 89.5479 169.357L89.7135 169.095L89.518 168.425Z"/>
	<path fill="#02294C" transform="scale(0.5 0.5)" d="M401.612 158.125L401.928 158.065C402.098 158.131 402.317 158.125 402.437 158.262C402.654 158.512 402.854 159.52 402.993 159.875C403.795 161.928 404.502 163.966 405.915 165.696C406.903 166.907 408.838 168.006 410.412 168.104L410.625 168.11L410.961 168.625C410.655 169.57 408.556 169.92 407.655 170.418L407.375 170.577C405.796 171.466 404.803 173.181 404.162 174.831C403.611 176.248 403.107 178.291 402.125 179.418L401.399 179.358L399.372 174.231C397.749 170.983 394.967 169.959 391.726 168.878C395.628 167.067 398.556 165.92 400.124 161.527C400.545 160.346 400.819 159.118 401.612 158.125Z"/>
	<path fill="#02294C" transform="scale(0.5 0.5)" d="M355.706 139.625L356.478 139.625C358.046 142.785 358.603 146.685 362.061 148.486C363.3 149.131 364.586 149.44 365.551 150.5C365.576 150.672 365.702 150.86 365.625 151.016C365.11 152.056 361.786 153.183 360.75 153.975C358.456 155.729 357.693 158.709 356.625 161.261C356.103 161.57 356.176 161.499 355.625 161.437C354.985 160.301 354.676 159.1 354.277 157.87C352.934 153.721 349.738 152.722 346.216 150.932C347.695 149.963 349.318 149.289 350.786 148.335C353.834 146.355 354.31 142.7 355.706 139.625Z"/>
	<path fill="#02294C" transform="scale(0.5 0.5)" d="M139.606 139.375C140.55 139.665 142.196 145.055 143.04 146.305C144.639 148.675 147.692 149.6 150.131 150.915C149.794 151.199 149.948 151.124 149.541 151.258L149.146 151.38C145.681 152.486 143.029 154.152 141.589 157.596C141.046 158.893 140.768 160.226 140.125 161.492L139.739 161.647C138.409 161.155 138.043 158.488 137.422 157.273C136.956 156.361 136.354 155.564 135.74 154.75C134.122 152.604 131.711 152.74 129.957 151.125C130.241 149.389 133.387 148.757 134.746 147.819C135.328 147.418 135.664 146.856 136.062 146.289C136.846 145.17 137.471 144.027 137.966 142.75C138.449 141.506 138.532 140.232 139.606 139.375Z"/>
	<path fill="#02294C" transform="scale(0.5 0.5)" d="M177.544 368.733C178.372 368.075 179.241 367.632 180.332 367.759C181.826 367.933 183.19 368.985 184.374 369.844L189.584 373.594C193.22 376.027 197.207 378.805 201.149 380.689C206.451 383.222 211.664 384.776 217.273 386.375C239.323 392.66 261.677 392.741 283.75 386.472C286.518 385.686 289.344 385.08 292.026 384.023C299.059 381.25 305.654 377.217 311.748 372.771C313.657 371.379 317.867 367.29 320.332 367.535C321.305 367.632 321.987 368.048 322.65 368.734C322.709 369.667 322.825 370.688 322.653 371.611C321.969 375.287 315.243 379.339 312.229 381.375C309.585 383.161 306.821 384.528 304 385.997C301.588 387.253 299.19 388.593 296.69 389.671C274.357 399.303 247.326 400.697 223.642 395.825C215.253 394.099 206.966 391.104 199.231 387.458C193.351 384.686 188.199 381.904 182.973 378.011C181.231 376.714 178.931 375.158 177.792 373.264C176.954 371.872 177.155 370.233 177.544 368.733Z"/>
	<path fill="#02294C" transform="scale(0.5 0.5)" d="M268.717 110.064C271.695 109.408 275.212 109.631 278.021 110.87C281.687 112.312 284.956 115.21 286.816 118.676C288.71 122.209 289.29 126.725 288.137 130.591C286.87 134.842 284.224 137.899 280.592 140.434C277.076 142.888 272.109 143.21 268 142.526C266.068 142.204 264.252 141.539 262.614 140.45C259.678 138.496 256.659 134.694 255.532 131.331C255.106 130.06 254.907 128.652 254.65 127.337C253.614 126.858 251.03 124.886 250.168 125.014C248.682 125.235 246.313 125.92 245.566 127.332C245.079 128.253 244.941 129.584 244.694 130.606C244.281 132.312 243.61 133.946 242.541 135.35C239.888 138.838 236.16 142.041 231.647 142.569C228.919 142.888 225.671 143.141 223.049 142.179C221.881 141.75 220.707 141.372 219.625 140.741C216.328 138.818 212.738 134.686 211.769 130.959L211.663 130.539C210.77 127.125 211.124 122.807 212.651 119.613C214.529 115.685 218.43 112.031 222.601 110.616C227.351 109.005 232.775 109.586 237.173 111.953C240.922 113.97 243.681 118.21 244.773 122.211C246.011 121.684 247.297 121.136 248.636 120.946L248.956 120.903C251.108 120.567 253.15 121.269 254.989 122.367L255.208 122.5L256.458 119.25L256.87 118.36C258.702 114.926 262.143 111.912 265.883 110.758L266.192 110.666L268.717 110.064Z"/>
	<path fill="#0A274C" transform="scale(0.5 0.5)" d="M268.717 110.064C271.695 109.408 275.212 109.631 278.021 110.87L277.633 111.023C276.885 111.235 275.996 111.142 275.312 110.786C274.707 110.471 274.368 110.24 273.628 110.39C272.049 110.71 270.24 110.593 268.717 110.064Z"/>
	<path fill="#FCF8EB" transform="scale(0.5 0.5)" d="M282.264 120.228C282.804 121.263 283.352 122.337 283.641 123.473C284.456 126.68 283.936 129.901 282.229 132.728C280.412 135.737 277.142 137.272 273.803 138.025C270.309 138.813 266.702 137.485 263.774 135.607C261.108 133.898 260.294 131.197 259.699 128.254C259.148 125.525 259.92 121.465 261.515 119.155C263.027 116.965 265.838 114.94 268.456 114.476C271.652 113.91 275.856 114.135 278.551 116.062C280.084 116.504 281 117.768 281.748 119.125L282.264 120.228Z"/>
	<path fill="#39D1DA" transform="scale(0.5 0.5)" d="M277.503 120.754C276.18 121.861 274.327 123.808 272.625 124.186L272.145 123.875L272.097 123.25C273.226 121.913 274.829 120.77 276.169 119.635C276.649 120.225 276.782 120.467 277.503 120.754Z"/>
	<path fill="#2B5269" transform="scale(0.5 0.5)" d="M269.031 117.125C269.64 116.892 270.001 116.985 270.625 117.089C270.792 117.366 271.009 117.537 270.915 117.877C270.474 119.482 267.055 121.827 265.684 122.803L264.875 122.926L264.412 122.564L264.361 121.849C265.34 120.037 267.232 118.139 269.031 117.125Z"/>
	<path fill="#40C8D2" transform="scale(0.5 0.5)" d="M278.551 116.062C280.084 116.504 281 117.768 281.748 119.125L282.264 120.228C281.732 120.736 281.456 120.969 281.271 121.709L280.289 121.959L279.782 121.125C278.918 120.718 278.449 120.664 277.503 120.754C276.782 120.467 276.649 120.225 276.169 119.635C277.382 118.51 277.885 117.558 278.551 116.062Z"/>
	<path fill="#39D1DA" transform="scale(0.5 0.5)" d="M280.289 121.959L281.271 121.709C281.386 123.215 281.768 124.954 280.656 126.17C279.317 127.635 277.65 128.835 276.078 130.036C274.983 130.873 273.933 131.795 272.625 132.275L272.014 132.224C271.888 131.672 271.824 131.607 272.17 131.115C273.685 128.961 276.412 126.991 278.37 125.201C278.784 124.823 279.994 123.857 280.195 123.375C280.347 123.012 280.327 122.358 280.289 121.959Z"/>
	<path fill="#FCF8EB" transform="scale(0.5 0.5)" d="M238.644 119.157C239.067 119.828 239.338 120.465 239.589 121.218C240.873 125.085 240.999 129.206 239.01 132.894C237.654 135.408 234.089 137.071 231.436 137.835C227.864 138.863 224.324 137.964 221.125 136.169C218.374 134.626 217.087 131.817 216.306 128.856C215.481 125.732 216.408 122.431 218.006 119.7C219.491 117.163 221.953 115.247 224.827 114.567C228.151 113.782 232.286 114.18 235.188 115.975C236.611 116.641 237.885 117.776 238.644 119.157Z"/>
	<path fill="#40C8D2" transform="scale(0.5 0.5)" d="M233.488 120.777C231.942 121.417 230.9 123.479 229.424 123.997C228.896 124.182 228.725 123.993 228.284 123.741L228.273 123.25L232.18 119.624C232.634 120.202 232.774 120.557 233.488 120.777Z"/>
	<path fill="#2B5269" transform="scale(0.5 0.5)" d="M225.884 116.375L226.624 116.206C227.188 116.805 227.406 116.916 227.533 117.75C226.562 119.532 223.467 121.755 221.738 122.875C221.184 122.978 221.134 122.998 220.625 122.767L220.333 121.875C220.934 120.127 224.392 117.617 225.884 116.375Z"/>
	<path fill="#39D1DA" transform="scale(0.5 0.5)" d="M235.188 115.975C236.611 116.641 237.885 117.776 238.644 119.157L238.34 119.524C237.602 120.428 237.326 121.192 237.566 122.375L238.014 123.653C238.178 124.098 238.142 123.912 238.061 124.411C236.125 126.763 233.717 128.723 231.386 130.675C230.55 131.375 229.587 132.373 228.5 132.515C228.242 132.124 228.177 132.224 228.302 131.828C229.241 128.866 235.941 125.261 236.201 122.625C235.81 121.858 235.242 121.207 234.384 120.957L233.488 120.777C232.774 120.557 232.634 120.202 232.18 119.624C233.401 118.521 234.46 117.469 235.188 115.975Z"/>
	<path fill="#FAC9A9" transform="scale(0.5 0.5)" d="M164.562 359.841C165.165 358.668 166.702 357.021 167.833 356.365C173.724 356.12 179.591 356.041 185.451 355.278L193.947 354.045C194.374 353.972 196.408 353.479 196.707 353.596C197.622 353.953 198.761 355.044 199.674 355.57C201.936 356.872 204.325 357.981 206.739 358.97C210.849 360.655 215.225 362.314 219.5 363.513C222.092 364.241 224.728 364.564 227.375 365.004C237.267 366.647 246.813 367.855 256.875 367.173C268.515 366.383 280.1 364.171 291.022 360.074C293.865 359.008 296.629 357.793 299.261 356.272C300.173 355.745 302.54 353.608 303.314 353.575C304.196 353.539 305.701 354.091 306.637 354.246C312.302 355.19 318.098 356.101 323.607 357.754C325.847 358.427 328.389 359.247 330.409 360.43C328.943 362.607 326.411 363.677 324.771 365.75C324.024 366.695 323.079 367.585 322.65 368.734C321.987 368.048 321.305 367.632 320.332 367.535C317.867 367.29 313.657 371.379 311.748 372.771C305.654 377.217 299.059 381.25 292.026 384.023C289.344 385.08 286.518 385.686 283.75 386.472C261.677 392.741 239.323 392.66 217.273 386.375C211.664 384.776 206.451 383.222 201.149 380.689C197.207 378.805 193.22 376.027 189.584 373.594L184.374 369.844C183.19 368.985 181.826 367.933 180.332 367.759C179.241 367.632 178.372 368.075 177.544 368.733C177.072 367.844 176.04 367.052 175.3 366.341C173.823 364.921 172.21 363.343 170.406 362.347C168.578 361.337 166.462 360.739 164.562 359.841Z"/>
	<path fill="#FCD6B4" transform="scale(0.5 0.5)" d="M312.487 360.875C313.079 360.787 313.106 360.765 313.625 361.052C313.644 361.92 313.553 362.025 313.125 362.739L312.733 362.929L312.303 362.714C312.134 361.809 312.046 361.729 312.487 360.875Z"/>
	<path fill="#FCD6B4" transform="scale(0.5 0.5)" d="M186.932 363.125C187.762 362.958 187.851 362.925 188.625 363.247L188.743 363.875L188.125 364.542L187.609 364.706C187.001 364.325 186.88 364.255 186.551 363.625L186.932 363.125Z"/>
	<path fill="#FBF0E1" transform="scale(0.5 0.5)" d="M296.117 365.899C296.033 367.423 295.761 368.412 295.062 369.774C294.691 370.5 294.305 370.708 293.622 371.082C292.809 369.524 292.905 369.067 293.038 367.336C293.808 366.49 295.261 366.669 296.117 365.899Z"/>
	<path fill="#FDF4DC" transform="scale(0.5 0.5)" d="M304.793 361.875C305.47 361.725 306.005 361.577 306.625 362.01C307.615 362.701 308.819 364.059 309.032 365.25C308.892 366.293 307.852 367.044 307.125 367.746C306.512 368.044 306.468 368.047 305.794 367.937C305.515 366.768 306.871 365.532 307.07 364.25L306.791 363.875C306.266 363.794 305.462 363.753 305 363.53C304.471 363.273 304.416 363.01 304.298 362.5L304.793 361.875Z"/>
	<path fill="#FBF0E1" transform="scale(0.5 0.5)" d="M194.333 362.625C194.904 362.434 195.288 362.469 195.875 362.492C196.391 362.972 196.438 362.932 196.489 363.625L194.772 365.262C195.49 366.177 196.518 367.184 196.522 368.375L195.625 368.427C194.227 367.613 192.526 366.761 191.806 365.25C192.305 364.11 193.393 363.4 194.333 362.625Z"/>
	<path fill="#FDF4DC" transform="scale(0.5 0.5)" d="M296.033 369.541C296.456 368.93 296.409 368.818 297.125 368.678C298.172 369.937 300.243 372.816 300.476 374.375C300.292 374.643 300.167 374.962 299.925 375.179C299.346 375.696 297.435 376.2 296.669 376.501L286.93 380.243C281.918 381.997 276.583 383.578 271.342 384.458C264.123 385.671 256.393 385.755 249.088 385.769C242.164 385.782 234.886 385.802 228.093 384.395C223.014 383.344 217.4 381.813 212.578 379.912C208.965 378.488 205.594 376.751 202.1 375.075C203.47 371.414 205.484 368.182 206.593 364.427C208.418 364.735 210.021 365.34 211.75 365.941C214.089 366.753 216.617 367.415 219.014 368.062C223.486 369.268 228.142 370.487 232.724 371.182L240.412 372.033C242.965 372.39 245.671 372.285 248.25 372.341C255.55 372.5 262.417 372.187 269.641 371.065C273.597 370.451 277.37 369.764 281.141 368.354C283.171 367.595 294.862 363.882 295.952 364.375L296.117 365.899C295.261 366.669 293.808 366.49 293.038 367.336C292.905 369.067 292.809 369.524 293.622 371.082C294.305 370.708 294.691 370.5 295.062 369.774L296.033 369.541Z"/>
	<path fill="#E7C195" transform="scale(0.5 0.5)" d="M269.936 373.375L270.606 373.289C271.069 373.585 271.507 373.814 271.768 374.321C271.963 374.7 271.776 374.988 271.677 375.375L270.875 375.785L270.408 375.568C270.329 374.796 270.157 374.117 269.936 373.375Z"/>
	<path fill="#D9A97F" transform="scale(0.5 0.5)" d="M228.518 380.252C229.186 379.703 229.813 379.082 230.669 378.859C231.15 379.385 231.143 379.81 231.286 380.5L231 380.962C230.152 381.024 229.506 381.039 228.682 380.812L228.518 380.252Z"/>
	<path fill="#F8B9A5" transform="scale(0.5 0.5)" d="M221.54 377.782C221.339 378.181 221.186 378.478 220.862 378.795C220.508 379.14 220.219 379.001 219.75 378.997C219.006 378.619 218.556 378.231 217.986 377.625L218.052 376.875C218.756 376.577 219.302 376.92 220.018 377.129L220.291 377.182C220.741 377.263 220.579 377.236 221.118 377.248L221.54 377.782Z"/>
	<path fill="#F8B9A5" transform="scale(0.5 0.5)" d="M226.199 374.579C227.492 373.866 228.531 373.657 230 373.771C230.737 374.262 231.293 374.653 231.815 375.375L231.838 375.815C230.996 376.11 229.821 375.156 228.928 374.896C228.399 374.742 227.844 374.773 227.303 374.803L226.199 374.579Z"/>
	<path fill="#E7C195" transform="scale(0.5 0.5)" d="M207.697 373.012L207.646 373.01C207.372 373.23 207.24 373.388 207.053 373.691C206.677 374.306 206.225 374.861 205.782 375.429C205.949 374.135 206.32 372.752 206.91 371.588C207.308 370.804 207.521 370.354 207.518 369.454C207.516 368.794 207.523 368.371 207.722 367.743L207.875 368.627C208.519 368.82 209.17 368.989 209.777 369.284C208.756 370.418 208.332 371.042 207.923 372.475L207.697 373.012Z"/>
	<path fill="#F8B9A5" transform="scale(0.5 0.5)" d="M286.995 372.243L287.551 371.749L287.601 371.985C287.848 373.072 288.384 374.052 289.428 374.587C290.297 375.031 291.162 374.387 291.768 375.25C291.195 375.994 290.637 376.018 289.73 376.139C289.243 376.203 288.917 376.252 288.449 376.071C287.473 375.038 287.013 373.638 286.995 372.243Z"/>
	<path fill="#E7C195" transform="scale(0.5 0.5)" d="M277.291 372.125L278.25 372.006C278.888 372.733 278.271 372.637 278.357 373.375C278.529 374.838 279.698 377.085 280.406 378.363C280.635 378.777 280.48 378.937 280.375 379.384L279.625 379.717C279.032 379.163 278.997 378.239 278.811 377.481C278.513 376.269 277.949 373.954 277.285 372.945L277.08 372.685L277.291 372.125Z"/>
	<path fill="#FCD6B4" transform="scale(0.5 0.5)" d="M220.018 377.129C221.209 376.257 221.059 374.56 221.907 373.284C221.383 372.782 220.949 372.776 220.265 372.707L219.899 372.25L220.375 371.727L223.152 372.19C222.682 373.827 222.439 375.535 221.703 377.075C221.53 377.437 221.593 377.289 221.54 377.782L221.118 377.248C220.579 377.236 220.741 377.263 220.291 377.182L220.018 377.129Z"/>
	<path fill="#FAC9A9" transform="scale(0.5 0.5)" d="M242.809 379.107C243.05 378.633 243.31 378.367 243.664 377.972L244.914 378.391L244.838 378.614C244.559 379.45 244.585 380.144 244.426 380.976C244.285 381.711 243.975 382.372 243.859 383.125C243.271 383.386 243.186 383.291 242.552 383.125C242.171 382.23 242.449 381.666 242.742 380.761C242.927 380.19 242.877 379.694 242.809 379.107Z"/>
	<path fill="#FCD6B4" transform="scale(0.5 0.5)" d="M235.338 378.069L238.5 378.516C239.133 379.153 238.993 379.378 239.02 380.25L238.625 380.557L237.044 380.258L236.947 380.135L233.375 379.894C232.938 379.343 232.965 379.334 232.979 378.625C233.709 378.262 234.542 378.197 235.338 378.069Z"/>
	<path fill="#FCD6B4" transform="scale(0.5 0.5)" d="M293.622 371.082C294.305 370.708 294.691 370.5 295.062 369.774L296.033 369.541C296.313 370.306 296.564 370.962 297.043 371.625C297.07 372.465 297.22 372.934 296.574 373.577C296.244 373.905 295.809 374.318 295.345 374.32C294.927 374.322 294.539 374.384 294.127 374.45L294.357 373.631C294.64 372.453 294.238 372.046 293.622 371.082Z"/>
	<path fill="#FAC9A9" transform="scale(0.5 0.5)" d="M293.038 367.336C292.905 369.067 292.809 369.524 293.622 371.082C294.238 372.046 294.64 372.453 294.357 373.631L294.127 374.45C293.77 374.435 293.545 374.391 293.207 374.297C292.06 372.38 291.32 370.333 290.543 368.25C290.99 367.552 292.223 367.515 293.038 367.336Z"/>
	<path fill="#FAC9A9" transform="scale(0.5 0.5)" d="M226.199 374.579L227.303 374.803C226.438 375.776 226.428 376.327 226.491 377.594C226.533 378.458 226.753 379.772 227.473 380.336L227.75 380.525L228.518 380.252L228.682 380.812C228.157 380.737 228.357 380.742 227.891 380.75C227.388 380.759 226.847 380.819 226.36 380.662C225.569 380.406 224.735 380.037 224.125 379.47C223.912 378.532 224.164 377.624 224.467 376.731C224.835 375.646 225.155 375.078 226.199 374.579Z"/>
	<path fill="#F8B9A5" transform="scale(0.5 0.5)" d="M241.94 377.289C241.778 376.244 241.743 376.156 242.241 375.234C243.423 374.744 244.127 375.096 245.375 375.171C246.053 375.211 246.854 375.382 247.32 375.929C247.943 376.661 248.195 377.951 248.457 378.875L248 379.532C247.712 379.346 247.589 379.343 247.463 379.014C247.004 377.82 246.372 376.821 245.625 375.79L245.125 375.891L244.914 378.391L243.664 377.972C243.31 378.367 243.05 378.633 242.809 379.107C242.556 378.485 242.341 377.833 241.94 377.289Z"/>
	<path fill="#FCD6B4" transform="scale(0.5 0.5)" d="M241.94 377.289C242.608 376.718 242.842 376.261 243.742 376.308C244.109 376.953 243.852 377.274 243.664 377.972C243.31 378.367 243.05 378.633 242.809 379.107C242.556 378.485 242.341 377.833 241.94 377.289Z"/>
	<path fill="#FAC9A9" transform="scale(0.5 0.5)" d="M286.995 372.243C286.357 372.099 286.091 371.769 285.663 371.312C285.456 371.091 285.554 371.126 285.262 371.056C284.446 370.859 283.647 370.764 282.932 371.199C282.58 372.399 283.001 374.415 283.121 375.698C283.836 374.527 284.43 373.535 285.5 372.658L285.959 372.758L286.021 373.375C285.505 373.917 284.913 374.669 284.239 374.991L283.933 375.125L283.872 375.631L284.5 376.281C284.97 376.763 285.149 376.951 285.256 377.625L284.75 377.989C284.042 377.622 284.039 377.465 283.75 376.75C283.368 375.803 282.573 375.1 282.225 374.171C281.927 373.377 281.909 372.447 281.619 371.607L281.537 371.375C281.898 370.582 282.646 370.492 283.421 370.156C284.554 369.664 285.422 369.718 286.625 369.779C287.102 370.42 287.312 370.991 287.551 371.749L286.995 372.243Z"/>
	<path fill="#F8B9A5" transform="scale(0.5 0.5)" d="M251.602 375.375L252.126 375.315C253.366 376.544 251.655 380.719 252.75 381.961L254.625 381.641L255.174 382.074L255.214 382.625C254.489 382.775 253.801 382.852 253.062 382.897L249.625 382.919C248.986 382.389 249.04 382.33 248.886 381.501C249.296 380.786 249.835 381.4 250.623 381.125C250.966 380.203 251.452 379.215 251.313 378.214C251.172 377.2 250.994 376.26 251.602 375.375Z"/>
	<path fill="#FCD6B4" transform="scale(0.5 0.5)" d="M268.873 373.625C269.33 374.36 268.609 375.227 268.647 376C268.695 376.962 269.457 378.638 269.747 379.625C271.994 381.854 272.818 378.941 274.875 378.99L275.123 379.375L273.468 380.718C272.427 381.247 271.028 381.753 269.861 381.745C269.285 381.741 268.956 381.648 268.569 381.191C267.462 379.881 266.564 376.072 266.771 374.375C267.471 373.828 268.003 373.747 268.873 373.625Z"/>
	<path fill="#FAC9A9" transform="scale(0.5 0.5)" d="M260.281 374.875C260.795 374.799 260.66 374.776 261.089 374.838C261.718 374.93 262.307 375.012 262.675 375.625C262.862 375.937 262.902 376.972 262.989 377.375C263.217 378.418 263.898 381.379 264.522 382.118C264.841 382.495 264.709 382.149 264.814 382.625C263.24 382.539 261.707 382.605 260.154 382.89C259.445 383.019 259.068 383.006 258.375 382.862L258.014 382.359C258 381.492 257.885 381.16 258.375 380.425C258.852 380.721 259.005 381.155 259.245 381.64L259.359 381.875L260.123 381.875C260.566 381.463 260.712 381.196 260.822 380.597L260.875 380.288C261.133 378.877 261.041 377.712 260.875 376.306L260.375 376.079L259.5 376.954L258.577 376.919L258.484 376.25C259.035 375.533 259.44 375.211 260.281 374.875Z"/>
	<path fill="#FAC9A9" transform="scale(0.5 0.5)" d="M207.722 367.743L208.125 367.053C209.563 366.972 210.792 367.69 212.06 368.297C212.499 368.99 213.173 369.844 213.421 370.623C213.706 371.516 213.59 372.35 213.985 373.266L214.375 373.313C215.08 372.201 215.883 371.094 216.365 369.866L216.875 369.666C217.484 369.993 217.493 369.991 217.763 370.625C217.635 371.579 216.706 372.309 216.169 373.098C214.997 374.82 214.279 376.565 213.303 378.358C213.307 377.302 213.559 375.073 213.039 374.212C212.299 373.928 211.983 374.131 211.25 374.38C210.083 374.045 209.708 373.526 209.034 372.574C208.779 372.8 208.045 372.911 207.697 373.012L207.923 372.475C208.332 371.042 208.756 370.418 209.777 369.284C209.17 368.989 208.519 368.82 207.875 368.627L207.722 367.743Z"/>
	<path fill="#FBF0E1" transform="scale(0.5 0.5)" d="M209.777 369.284C210.594 369.65 211.381 369.994 211.744 370.875C212.005 371.506 212.07 372.203 211.993 372.875C210.959 373.182 210.194 372.251 209.034 372.574C208.779 372.8 208.045 372.911 207.697 373.012L207.923 372.475C208.332 371.042 208.756 370.418 209.777 369.284Z"/>
	<path fill="#02294C" transform="scale(0.5 0.5)" d="M164.562 359.841C162.7 361.466 160.781 363.286 158.563 364.403C156.018 365.684 153.705 367.429 151.133 368.738C143.582 372.581 134.755 373.63 126.627 371.014C119.228 368.632 113.117 363.425 109.619 356.492C104.928 347.194 104.558 335.603 107.181 325.622C103.345 326.599 96.765 327.594 93.125 326.188L92.5122 325.985C87.1675 324.216 82.4454 321.413 79.8287 316.207C78.3705 313.305 77.8573 309.286 78.9875 306.205C79.7249 304.194 81.8186 302.352 82.1241 300.394C82.6181 297.228 82.2095 293.415 82.2024 290.191L82.1532 268.203L82.1517 232.154L82.1243 220.717C82.1077 218.467 82.1932 216.157 81.9233 213.923C79.8965 210.819 76.6028 207.665 77.5345 203.576C77.7584 202.593 78.0238 201.351 78.5078 200.465C79.9855 197.76 83.9983 195.556 86.5908 193.987L91.9294 190.924C93.2026 190.139 94.3364 189.219 95.6756 188.518C99.341 186.6 103.358 185.061 107.25 183.683C112.586 181.793 117.926 180.165 123.555 179.427C130.228 178.551 136.354 178.969 141.85 183.188L142.496 183.707L142.593 183.279C144.219 176.382 150.026 170.523 155.944 166.933C161.485 163.572 168.272 162.444 174.633 162.015C177.396 161.829 179.98 161.612 182.75 162.028C184.061 162.225 185.346 162.368 186.627 162.735C187.714 163.047 188.875 163.589 189.997 163.702L190.287 163.426C191.904 161.906 193.593 161.352 195.751 160.931C198.883 160.319 202.193 160.28 205.375 160.145L217.655 159.694C226.249 159.45 235.034 158.898 243.625 159.3C245.411 159.384 247.495 160.258 248.684 161.609C250.404 163.563 250.843 166.346 250.674 168.875L251 169.076L251.312 168.967C253.441 168.258 254.957 168.386 256.994 169.328C257.062 166.061 257.235 163.251 259.772 160.884C260.649 160.066 261.454 159.723 262.625 159.515C266.106 158.896 270.201 159.27 273.768 159.301C278.874 159.346 284.157 159.221 289.25 159.595C289.989 159.649 290.573 159.744 291.32 159.662C294.683 159.293 298.651 159.915 302.065 160.113C314.605 160.839 327.044 161.931 339.462 163.87C342.432 164.334 345.454 164.572 348.383 165.272C349.641 165.572 351.173 166.205 352.178 167.023C353.222 167.873 353.827 168.984 354.5 170.125C354.587 170.271 355.039 171.156 355.157 171.22C355.877 171.613 358.097 171.55 359.029 171.71L366.729 173.423C370.596 174.457 374.289 175.792 378.055 177.124C379.897 177.776 381.7 178.279 383.508 179.064C388.222 181.11 392.879 183.807 397.25 186.502C403.543 190.381 410.358 195.29 413.007 202.5L413.147 202.872C414.745 207.32 414.188 213.56 414.22 218.257C414.252 222.849 414.556 227.792 413.873 232.33C413.707 233.436 413.182 234.511 412.695 235.511L412.079 236.745C411.069 238.703 408.875 240.414 407.275 241.93C406.971 242.218 405.926 243.049 405.8 243.375C405.611 243.865 405.848 245.223 406.004 245.753C407.742 251.65 410.426 257.068 411.152 263.282C411.322 264.737 411.635 266.158 411.741 267.625C412.238 274.511 411.867 281.685 411.868 288.6C411.868 292.235 411.32 296.771 412.194 300.262C412.806 302.706 415.234 304.442 416.01 306.875L416.117 307.196C417.211 310.614 416.954 314.686 415.267 317.875C412.956 322.245 408.366 324.692 403.76 326.089L402.52 326.463C400.009 327.219 394.951 326.548 392.527 325.593C392.549 326 392.608 326.133 392.751 326.504C394.633 331.391 394.503 336.834 394.506 341.984C394.508 344.824 394.614 347.705 394.125 350.513C393.691 353.005 392.804 355.574 391.767 357.874C390.121 361.526 387.132 364.559 383.97 366.946C380.073 369.888 375.882 371.383 371.125 372.258L370.766 372.326C369.166 372.602 367.495 372.534 365.876 372.527C357.205 372.493 350.2 369.287 342.461 365.772L335.375 362.719C333.711 361.968 332.119 361.078 330.409 360.43C328.389 359.247 325.847 358.427 323.607 357.754C318.098 356.101 312.302 355.19 306.637 354.246C305.701 354.091 304.196 353.539 303.314 353.575C302.54 353.608 300.173 355.745 299.261 356.272C296.629 357.793 293.865 359.008 291.022 360.074C280.1 364.171 268.515 366.383 256.875 367.173C246.813 367.855 237.267 366.647 227.375 365.004C224.728 364.564 222.092 364.241 219.5 363.513C215.225 362.314 210.849 360.655 206.739 358.97C204.325 357.981 201.936 356.872 199.674 355.57C198.761 355.044 197.622 353.953 196.707 353.596C196.408 353.479 194.374 353.972 193.947 354.045L185.451 355.278C179.591 356.041 173.724 356.12 167.833 356.365C166.702 357.021 165.165 358.668 164.562 359.841Z"/>
	<path fill="#F8B9A5" transform="scale(0.5 0.5)" d="M232.034 241.305L233.675 242.875C233.272 243.452 232.669 243.567 232.034 243.781C231.543 243.21 231.03 242.669 230.453 242.185L232.034 241.305Z"/>
	<path fill="#F8B9A5" transform="scale(0.5 0.5)" d="M111.592 307.556C112.428 307.972 113.378 308.344 114.052 309L113.957 309.457L111.998 310.25C111.452 309.569 111.041 309.051 110.262 308.638L111.592 307.556Z"/>
	<path fill="#FBF0E1" transform="scale(0.5 0.5)" d="M228.533 235.486C229.158 238.152 230.098 239.44 232.034 241.305L230.453 242.185L230.244 242.029C229.002 241.035 227.435 239.247 227.344 237.576C227.29 236.572 227.91 236.201 228.533 235.486Z"/>
	<path fill="#F8B9A5" transform="scale(0.5 0.5)" d="M293.547 241.384L295.544 242.245C296.014 242.463 296.244 242.501 296.75 242.487L297.603 241.864C298.552 242.409 299.767 242.94 300.504 243.75L300.375 244.171C298.927 244.744 297.01 244.492 295.446 244.491L286.098 244.444C288.516 243.504 291.685 244.902 294.01 244.117C294.585 243.923 295.141 243.89 295.75 243.939L296.125 244L296.127 243.125L295.625 242.873C295.218 242.598 295.021 242.319 294.517 242.21C294.051 242.109 293.865 241.742 293.547 241.384Z"/>
	<path fill="#FBF0E1" transform="scale(0.5 0.5)" d="M293.547 241.384L293.435 241.232L293.25 240.977C292.489 239.959 291.934 238.926 291.751 237.65C291.669 237.074 291.508 236.483 291.565 235.899L291.7 234.535L292.258 234.409L292.621 234.135C292.7 234.563 292.718 234.41 292.63 234.804L292.562 235.062L293.155 234.952C293.904 238.234 294.752 239.933 297.603 241.864L296.75 242.487C296.244 242.501 296.014 242.463 295.544 242.245L293.547 241.384Z"/>
	<path fill="#FCF8EB" transform="scale(0.5 0.5)" d="M311.418 174.448C310.425 172.417 309.267 170.577 307.955 168.738C310.349 168.623 312.951 168.631 315.321 168.99L315.103 169.061C314.338 169.304 313.675 169.393 312.875 169.418C312.876 170.005 312.876 170.503 313.022 171.074C313.186 171.714 313.108 172.337 313.064 172.989C312.832 173.181 312.617 173.351 312.363 173.513L312.194 173.855C311.97 174.292 312.087 174.137 311.793 174.425L311.418 174.448Z"/>
	<path fill="#F8B9A5" transform="scale(0.5 0.5)" d="M126.553 304.812L127.268 304.573L127.417 303.625C127.866 303.352 127.896 303.302 128.125 302.826C128.839 303.373 129.195 304.311 129.665 305.074C131.665 308.316 134.28 310.682 138 311.682C139.136 311.987 140.437 312.449 141.625 312.372C143.158 312.273 144.157 311.582 145.746 311.992C145.658 312.519 145.597 312.837 145.294 313.297C144.645 314.281 142.846 314.752 141.748 315.02C138.635 315.78 135.037 314.845 132.329 313.192C129.194 311.279 127.394 308.331 126.553 304.812Z"/>
	<path fill="#FCF8EB" transform="scale(0.5 0.5)" d="M199.717 171.043L199.231 168.625L199.5 168.259C202.135 167.788 204.995 168.033 207.672 167.887L228.054 167.305C232.686 167.224 237.373 167.004 242 167.273L242.306 167.994L242.125 169.953C240.912 169.973 239.685 169.769 238.452 169.766L217.875 169.788L208.165 170.364C206.464 170.443 203.192 169.955 201.812 170.928C200.9 170.494 200.656 170.862 199.717 171.043Z"/>
	<path fill="#FCD6B4" transform="scale(0.5 0.5)" d="M126.553 304.812C125.819 301.423 126.196 297.648 126.731 294.243C127.372 294.027 129.939 295.023 130.775 295.192C131.894 295.419 133.06 295.504 134.197 295.612C134.424 296.387 134.534 297.179 134.662 297.975C135.462 301.378 135.92 303.784 139.125 305.766C141.011 306.933 143.178 307.565 144.945 308.942C145.547 309.582 145.96 310.207 145.946 311.125C145.942 311.43 145.84 311.707 145.746 311.992C144.157 311.582 143.158 312.273 141.625 312.372C140.437 312.449 139.136 311.987 138 311.682C134.28 310.682 131.665 308.316 129.665 305.074C129.195 304.311 128.839 303.373 128.125 302.826C127.896 303.302 127.866 303.352 127.417 303.625L127.268 304.573L126.553 304.812Z"/>
	<defs>
		<linearGradient id="gradient_0" gradientUnits="userSpaceOnUse" x1="139.51939" y1="302.77011" x2="138.30684" y2="308.14212">
			<stop offset="0" stop-color="#FCF1D0"/>
			<stop offset="1" stop-color="#F5F9F2"/>
		</linearGradient>
	</defs>
	<path fill="url(#gradient_0)" transform="scale(0.5 0.5)" d="M134.662 297.975C135.462 301.378 135.92 303.784 139.125 305.766C141.011 306.933 143.178 307.565 144.945 308.942C144.555 309.379 143.962 309.645 143.375 309.674C141.348 309.776 137.855 308.51 136.429 307.135C135.444 306.185 134.426 304.617 134.423 303.203C134.421 302.489 134.317 302.149 134.825 301.649L134.627 301.25C134.674 300.62 134.768 300.023 134.539 299.418C134.312 298.819 134.496 298.572 134.662 297.975Z"/>
	<path fill="#F8B9A5" transform="scale(0.5 0.5)" d="M165.542 340.966C165.97 344.515 163.712 347.951 161.622 350.633C156.366 357.378 149.012 363.388 140.25 364.473C133.234 365.343 127.575 364.517 121.962 360.083C118.091 357.024 115.618 352.91 114.542 348.134L115.111 346.672L115.875 346.373L116.563 347.35C117.314 348.33 117.615 349.347 118.241 350.375C119.122 351.823 120.265 353.167 121.332 354.479C124.053 357.823 127.701 359.841 131.875 360.75C133.274 361.054 134.604 361.265 136.041 361.125C137.973 360.936 139.977 360.282 141.824 359.71C147.758 357.873 154.021 354.9 157.853 349.807C159.641 347.431 161.158 344.134 163.332 342.125C163.892 341.607 164.622 341.878 165.312 341.947L165.542 340.966Z"/>
	<path fill="#FCF8EB" transform="scale(0.5 0.5)" d="M361.035 296.077L357.144 295.271C358.898 293.536 360.732 291.652 361.298 289.169C361.733 287.258 361.51 284.935 361.507 282.963L361.365 274.059L359.558 252.316L358.977 212.42L358.982 199.844C358.981 196.972 359.093 194.066 358.656 191.219C357.929 186.471 355.092 182.188 352.663 178.152C355.58 178.194 358.418 178.708 361.241 179.422C372.741 182.329 383.343 187.464 393.5 193.487C397.323 195.754 401.785 198.058 404.125 201.964L403.688 202.124C403.398 201.544 403.369 201.599 402.751 201.373L402.246 201.502L402.203 201.75L402.5 202L403 201.75L403.288 202.118L402.875 202.541C401.785 202.385 400.284 200.416 399.448 199.674C398.481 198.816 397.215 197.888 396.123 197.203C394.977 196.485 393.483 196.234 392.25 195.559C389.372 193.983 386.536 192.1 383.602 190.663C379.592 188.699 375.236 187.204 371.069 185.634C370.064 185.256 369.189 184.693 368.15 184.368L367.282 184.021C366.307 183.596 365.274 183.5 364.308 183.045C362.989 182.423 361.289 182.226 359.863 181.875L359.432 182.169L359.125 181.873L358.873 182.013L358.875 182.5L359.162 182.76L358.87 183.25C359.267 184.5 360.047 185.447 360.613 186.616C361.612 188.682 362.464 191.893 362.708 194.18L362.756 194.6C362.938 196.297 362.464 199.024 363 200.532C363.244 201.218 363.046 202.024 363.038 202.75L363.032 208.505C362.993 214.115 363.668 220.308 362.702 225.834C362.48 227.103 362.603 228.556 362.601 229.848L362.596 236.879C362.583 241.21 361.872 245.6 362.619 249.877C362.906 251.52 362.514 253.179 362.869 254.877C363.009 255.544 362.879 256.242 363.031 256.935C363.427 258.737 362.79 260.793 363.265 262.568C363.432 263.193 363.35 263.761 363.29 264.396C363.008 266.362 362.917 268.759 363.378 270.687C364.026 273.394 363.856 276.732 363.903 279.515C363.968 283.342 364.075 287.528 364.599 291.312C363.594 293.189 362.21 294.386 361.035 296.077Z"/>
	<path fill="#FCF8EB" transform="scale(0.5 0.5)" d="M254.524 175.524C254.837 177.196 254.527 179.316 254.534 181.055L254.545 195.421C254.527 198.027 254.289 200.844 254.578 203.427L269.219 201.143L253.127 242.064L250.257 247.791C249.779 245.108 249.957 242.211 249.964 239.489L250.079 228.402C250.206 224.946 250.49 221.522 250.399 218.059L240.934 217.632L254.524 175.524Z"/>
	<path fill="#FCD6B4" transform="scale(0.5 0.5)" d="M242.306 167.994C242.629 170.493 242.443 173.167 242.399 175.684C242.354 178.316 242.473 181.198 241.784 183.75L241.512 184.738C240.233 182.409 239.258 178.698 236.476 177.84C234.51 177.234 231.997 177.288 229.953 177.317C229.397 177.325 228.427 177.24 227.95 177.487L228.03 214.139L228.078 227.672C228.134 230.248 228.107 232.945 228.533 235.486C227.91 236.201 227.29 236.572 227.344 237.576C227.435 239.247 229.002 241.035 230.244 242.029L230.453 242.185C231.03 242.669 231.543 243.21 232.034 243.781C231.811 243.639 230.426 243.893 230.128 243.924L224.857 244.351L216.055 244.484C213.334 244.486 210.801 244.632 208.165 243.79C208.94 242.915 209.835 242.267 210.77 241.578L212.477 240.099C214.103 238.421 214.668 236.636 215.029 234.386C215.392 232.125 215.28 229.738 215.29 227.453L215.369 217.99L215.297 178.199L215 177.825C211.933 178.037 207.854 178.153 205.349 180.105C204.188 181.01 203.471 182.214 202.724 183.452C202.335 184.096 202.092 184.74 201.375 185.067L200.875 184.865C199.983 182.982 200.458 179.307 200.362 177.146C200.27 175.073 200.034 173.09 199.717 171.043C200.656 170.862 200.9 170.494 201.812 170.928C203.192 169.955 206.464 170.443 208.165 170.364L217.875 169.788L238.452 169.766C239.685 169.769 240.912 169.973 242.125 169.953L242.306 167.994Z"/>
	<path fill="#FBF0E1" transform="scale(0.5 0.5)" d="M215.297 178.199C216.06 178.107 216.673 178.392 217.375 178.647C218.378 180.34 217.781 203.259 217.781 207.696L217.853 222.12C217.918 226.476 218.456 231.705 217.428 235.932L217.335 236.29L217.248 236.656C216.718 238.773 215.039 240.855 213.14 241.935C212.554 242.269 211.996 242.505 211.333 242.625L210.77 241.578L212.477 240.099C214.103 238.421 214.668 236.636 215.029 234.386C215.392 232.125 215.28 229.738 215.29 227.453L215.369 217.99L215.297 178.199Z"/>
	<path fill="#FCD6B4" transform="scale(0.5 0.5)" d="M267.764 167.276L305.069 168.613L304.816 172.051L304.445 184.625L304.01 184.875C303.142 184.09 302.664 182.916 302.055 181.928C300.064 178.697 295.948 178.705 292.582 178.454L293.155 234.952L292.562 235.062L292.63 234.804C292.718 234.41 292.7 234.563 292.621 234.135L292.258 234.409L291.7 234.535L291.565 235.899C291.508 236.483 291.669 237.074 291.751 237.65C291.934 238.926 292.489 239.959 293.25 240.977L293.435 241.232L293.547 241.384C293.865 241.742 294.051 242.109 294.517 242.21C295.021 242.319 295.218 242.598 295.625 242.873L296.127 243.125L296.125 244L295.75 243.939C295.141 243.89 294.585 243.923 294.01 244.117C291.685 244.902 288.516 243.504 286.098 244.444C285.515 244.589 284.544 244.461 283.926 244.464L279.044 244.439C277.96 244.382 276.078 244.297 275.331 243.46C275.491 242.728 275.768 242.479 276.272 241.96C277.357 240.55 278.818 238.866 279.271 237.129C279.856 234.892 279.823 232.291 279.891 229.982L279.978 216.078L279.988 177.709C277.337 177.644 274.479 177.691 271.875 178.26C268.005 179.106 266.738 182.128 264.737 185.124L264.617 185.093C264.173 180.758 264.049 176.222 264.466 171.882C264.153 170.712 264.474 168.553 264.489 167.281L267.764 167.276Z"/>
	<path fill="#FBF0E1" transform="scale(0.5 0.5)" d="M264.466 171.882C264.153 170.712 264.474 168.553 264.489 167.281L267.764 167.276C267.232 167.631 266.932 167.8 266.291 167.859L264.886 168.878C264.883 170.152 265.214 173.235 264.623 174.25C264.589 173.463 264.589 172.659 264.466 171.882Z"/>
	<path fill="#FCF8EB" transform="scale(0.5 0.5)" d="M267.764 167.276L305.069 168.613L304.816 172.051C303.913 171.513 302.672 171.466 301.635 171.316C298.692 170.891 295.813 170.699 292.849 170.526C290.645 170.397 288.441 169.886 286.25 169.789L266.999 169.88L266.689 169.5L266.875 169.25C266.878 168.585 266.639 168.397 266.291 167.859C266.932 167.8 267.232 167.631 267.764 167.276Z"/>
	<defs>
		<linearGradient id="gradient_1" gradientUnits="userSpaceOnUse" x1="283.077" y1="210.02789" x2="276.41592" y2="210.20262">
			<stop offset="0" stop-color="#FEE4C8"/>
			<stop offset="1" stop-color="#FDF7EE"/>
		</linearGradient>
	</defs>
	<path fill="url(#gradient_1)" transform="scale(0.5 0.5)" d="M279.988 177.709L282.887 178.038L282.561 217.35C282.534 222.674 282.974 228.074 282.377 233.375C282.089 235.94 281.673 239.49 279.722 241.363C279.006 242.051 278.086 242.496 277.125 242.704L276.621 242.569L276.272 241.96C277.357 240.55 278.818 238.866 279.271 237.129C279.856 234.892 279.823 232.291 279.891 229.982L279.978 216.078L279.988 177.709Z"/>
	<defs>
		<linearGradient id="gradient_2" gradientUnits="userSpaceOnUse" x1="213.25169" y1="317.29953" x2="155.14589" y2="281.31119">
			<stop offset="0" stop-color="#FCC199"/>
			<stop offset="1" stop-color="#FDDFC0"/>
		</linearGradient>
	</defs>
	<path fill="url(#gradient_2)" transform="scale(0.5 0.5)" d="M167.567 262.745L167.218 259.504L197.027 257.991C200.112 257.958 203.3 257.797 206.375 258.025C206.645 258.775 206.431 259.701 206.341 260.485C205.836 264.909 206.218 269.552 205.25 273.881C203.815 272.35 202.659 270.239 200.875 269.113C199.586 268.3 197.787 268.089 196.289 268.033L192.968 267.989L193.249 335.123C193.825 338.725 194.814 341.125 197.776 343.395L200.083 344.755C195.929 345.987 191.58 346.298 187.287 346.745C182.998 347.192 178.869 347.826 174.546 347.256C174.774 346.952 175.868 345.304 176.099 345.249C177.752 342.398 178.907 339.568 179.364 336.272C179.751 333.475 179.625 330.457 179.644 327.633L179.702 313.409L179.694 268.769L179.639 268.648L178.125 268.777C175.248 269.158 172.611 270.257 170.804 272.62C170.014 273.652 169.487 274.837 168.678 275.875L168.125 275.889C167.311 274.475 167.514 272.199 167.504 270.617L167.567 262.745Z"/>
	<path fill="#FBF0E1" transform="scale(0.5 0.5)" d="M193.249 335.123C193.825 338.725 194.814 341.125 197.776 343.395L196.875 343.906C196.003 343.801 195.236 343.613 194.398 343.354C193.401 342.156 192.499 340.875 192.286 339.296C192.157 338.337 191.847 337.099 192.015 336.155C192.098 335.691 192.861 335.375 193.249 335.123Z"/>
	<path fill="#FBF0E1" transform="scale(0.5 0.5)" d="M167.567 262.745L167.218 259.504L197.027 257.991C200.112 257.958 203.3 257.797 206.375 258.025C206.645 258.775 206.431 259.701 206.341 260.485C205.717 260.31 205.029 260.14 204.375 260.149C203.257 260.162 202.128 260.486 201 260.536L190.38 260.716C185.904 260.766 181.523 260.42 177.031 260.84C176.672 260.873 176.427 260.862 176.077 260.84C174.738 260.759 171.099 260.957 170.125 261.798L170.062 261.312L170.5 261.125L170.361 260.541C170.9 260.694 170.688 260.54 171 261L171.375 260.873L171.026 260.51L171.346 260.362L171.267 259.818C170.439 259.781 169.472 259.641 168.676 259.867L168.528 260.217C168.396 260.52 167.94 261.219 167.873 261.516C167.723 262.185 168.079 262.041 167.567 262.745Z"/>
	<path fill="#FBF0E1" transform="scale(0.5 0.5)" d="M179.694 268.769L182.215 268.875C183.071 270.022 182.638 279.758 182.655 281.661L182.583 316.192C182.54 323.009 183.008 330.172 181.969 336.924L181.823 337.75C181.137 341.645 179.85 343.335 176.875 345.9L176.391 345.85L176.099 345.249C177.752 342.398 178.907 339.568 179.364 336.272C179.751 333.475 179.625 330.457 179.644 327.633L179.702 313.409L179.694 268.769Z"/>
	<defs>
		<linearGradient id="gradient_3" gradientUnits="userSpaceOnUse" x1="387.48239" y1="310.90872" x2="311.62183" y2="288.42679">
			<stop offset="0" stop-color="#F9B9A2"/>
			<stop offset="1" stop-color="#FDDEB6"/>
		</linearGradient>
	</defs>
	<path fill="url(#gradient_3)" transform="scale(0.5 0.5)" d="M318.234 314.044C316.705 308.008 317.211 301.553 317.265 295.375L317.449 276.355C317.478 273.224 317.871 269.585 317.332 266.526C316.788 263.439 315.278 260.705 313.787 257.992L320.09 258.232L336.28 258.566C340.135 258.676 344.145 258.728 347.958 259.314C348.394 260.009 348.095 261.314 347.954 262.15C348.254 265.135 348.282 268.994 347.667 271.931L347.25 272.201C345.827 271.634 344.75 270.338 343.516 269.445C341.948 268.309 339.992 268.464 338.15 268.406C336.014 268.339 333.91 268.262 331.781 268.501L331.8 280.13C332.971 280.463 334.665 280.295 335.904 280.311L347.875 279.938L348.208 280.25L348.203 282.032L348.041 288.393C348.012 289.931 348.097 291.498 347.699 292.992L347.257 293.125C346.05 292.311 344.945 291.243 343.669 290.551C340.958 289.082 336.066 289.153 333 289.401L331.784 289.481C331.727 291.466 331.181 301.68 331.973 302.951C331.411 303.436 331.202 303.621 331.016 304.375L331.558 304.882L331.574 305.319C331.59 306.186 331.058 306.67 331.122 307.625L330.832 307.668L330.062 306.501L330.5 306.377L330.938 306.188C331.011 305.925 331.125 305.645 331.125 305.373L330.813 305.062C330.328 305.562 329.88 306.038 329.309 306.441C328.719 306.856 328.19 307.359 328.059 308.099C327.945 308.739 328.499 309.477 328.893 309.984C329.139 310.3 329.432 310.513 329.75 310.75L330.164 310.689C330.719 310.611 330.494 310.628 331 310.625L331.25 310.377L333.688 310.438L334 310.127C334.622 310.127 334.967 310.022 335.5 310.377C336.767 310.377 338.484 310.16 339.652 310.655C336.929 310.688 331.921 310.204 329.641 311.671C329.223 312.062 328.623 312.391 328.607 312.975C328.565 314.482 328.636 316.017 329.785 317.14C331.401 318.72 334.076 319.315 335.532 320.833C336.742 322.738 340.068 323.266 341.906 324.48C342.866 325.115 343.972 325.802 345.014 326.262L365.751 337.499L365.979 337.628C367.392 338.416 369.254 339.146 370.867 339.154C371.359 339.156 371.032 339.14 371.593 339.282C372.135 339.418 372.464 339.285 372.995 339.186C373.416 339.107 373.786 339.119 374.211 339.115C374.938 339.107 375.461 339.021 375.999 338.499C376.916 337.608 377.838 336.273 378.102 335.026L378.169 334.718C378.429 333.424 378.78 330.653 378.251 329.5L378.026 329.402L377.341 329.062L378.126 328.938L378.127 327.375L378.689 327L378.496 326.585L378.679 326.294C379.846 327.989 380.23 330.103 380.631 332.089C381.083 334.327 380.549 336.752 379.625 338.795L379.488 339.124C378.765 340.8 377.074 342.145 375.542 343.059C375.324 343.189 374.196 343.704 374.084 343.875C373.738 344.402 373.909 344.961 374.016 345.518C372.382 345.518 370.564 345.763 368.973 345.381L368.625 345.291L362.929 343.409C354.571 339.835 347.176 334.047 339.263 329.625L328.582 324.019C326.778 323.112 324.621 322.383 323.052 321.124C320.648 319.196 319.371 316.86 318.234 314.044Z"/>
	<path fill="#FBF0E1" transform="scale(0.5 0.5)" d="M335.904 280.311L347.875 279.938L348.208 280.25L348.203 282.032C347.419 282.488 336.58 282.261 335.25 281.908C333.997 281.576 332.802 281.692 331.531 281.296C332.293 281.037 333.049 280.882 333.842 280.744L335.904 280.311Z"/>
	<path fill="#FBF0E1" transform="scale(0.5 0.5)" d="M320.09 258.232L336.28 258.566C340.135 258.676 344.145 258.728 347.958 259.314C348.394 260.009 348.095 261.314 347.954 262.15C347.636 261.474 347.667 260.997 347.718 260.263L347.75 259.875L347.263 259.623L346.941 259.941C346.31 260.182 345.976 260.097 345.35 259.933L345.129 259.873L343.939 260.255L343.501 260.372C343.029 260.508 341.478 260.524 341.25 260.75C342.201 261.27 343.917 261.016 345 261L345.389 261.391C341.884 261.661 338.615 260.794 335.151 260.66C333.441 260.594 331.367 261.182 329.762 260.683L329.625 260.25L331.875 260.25L330.356 259.446L330.314 258.84C328.195 258.612 325.964 258.817 323.831 258.863C322.493 258.783 321.377 258.605 320.09 258.232Z"/>
	<path fill="#FCF8EB" transform="scale(0.5 0.5)" d="M318.234 314.044C316.705 308.008 317.211 301.553 317.265 295.375L317.449 276.355C317.478 273.224 317.871 269.585 317.332 266.526C316.788 263.439 315.278 260.705 313.787 257.992L320.09 258.232C321.377 258.605 322.493 258.783 323.831 258.863C323.405 259.226 322.989 259.573 322.625 260L323.418 260.082C322.299 260.551 320.522 260.51 319.305 260.61C319.133 263.179 320.083 266.132 320.186 268.781C320.272 271.011 320.079 273.268 320.052 275.5L320.036 288.875L320.016 303.875C319.995 306.213 320.112 308.595 319.949 310.926C319.877 311.965 319.936 312.97 319.251 313.776L318.234 314.044Z"/>
	<defs>
		<linearGradient id="gradient_4" gradientUnits="userSpaceOnUse" x1="359.67548" y1="227.34341" x2="298.98892" y2="195.36449">
			<stop offset="0" stop-color="#F9B19C"/>
			<stop offset="1" stop-color="#FDE8C1"/>
		</linearGradient>
	</defs>
	<path fill="url(#gradient_4)" transform="scale(0.5 0.5)" d="M315.321 168.99C316.777 169.055 327.278 169.95 327.797 170.437C330.447 170.636 345.031 172.086 346.461 173.625L346.315 175.796L346.326 184.027C346.289 184.909 346.334 185.836 345.774 186.565C344.636 186.405 342.993 184.039 341.807 183.347C338.991 181.705 331.916 180.818 328.804 181.569C327.683 183.02 328.219 193.97 328.282 196.293C330.134 196.654 332.133 196.689 333.933 197.17L344.611 197.834L343.971 201.277C343.523 205.563 343.663 210.282 342.255 214.372C340.073 210.747 338.439 208.264 334.064 207.15C332.242 206.687 330.185 206.485 328.305 206.505L328.153 222.095C328.135 224.805 327.904 227.593 328.177 230.291C328.695 231.322 329.85 231.877 330.909 232.245C334.598 233.529 339.698 233.89 343.6 233.867C344.946 233.859 346.47 233.487 347.777 233.607C348.176 233.643 348.296 233.687 348.551 233.97C349.253 239.217 349.055 244.999 348.722 250.273L307.452 244.619C308.142 243.861 308.915 242.763 309.746 242.192C310.534 241.198 311.404 240.17 311.945 239.017C312.688 237.429 312.849 235.467 312.953 233.733C313.151 230.448 313.014 227.093 313.017 223.798L313.037 205.534L313.05 189.355C313.05 186.326 313.19 183.193 312.948 180.179C312.786 178.166 312.126 176.319 311.418 174.448L311.793 174.425C312.087 174.137 311.97 174.292 312.194 173.855L312.363 173.513C312.617 173.351 312.832 173.181 313.064 172.989C313.108 172.337 313.186 171.714 313.022 171.074C312.876 170.503 312.876 170.005 312.875 169.418C313.675 169.393 314.338 169.304 315.103 169.061L315.321 168.99Z"/>
	<path fill="#FBF0E1" transform="scale(0.5 0.5)" d="M315.211 176.75L314.975 176.411C314.585 176.326 314.756 176.328 314.33 176.396L314.017 176.453L313.836 176.017C314.091 175.721 314.326 175.477 314.5 175.125C314.257 174.467 314.158 174.09 314.438 173.438L314.873 173.375C314.944 174.238 314.86 175.138 315.168 175.957L315.337 176.383L315.211 176.75Z"/>
	<path fill="#FBF0E1" transform="scale(0.5 0.5)" d="M333.933 197.17L344.611 197.834L343.971 201.277C343.188 200.893 342.575 200.897 341.75 200.706C340.609 200.441 339.549 199.954 338.375 199.795C337.153 199.63 335.303 199.756 334.252 199.125L334.75 199C335.504 199.413 336.529 199.268 337.375 199.25C337.399 198.68 337.438 198.365 337.124 197.873C336.536 197.88 335.901 197.948 335.353 197.701L335.126 197.562C334.564 197.645 334.15 197.567 333.597 197.451L333.933 197.17Z"/>
	<path fill="#FCF8EB" transform="scale(0.5 0.5)" d="M327.797 170.437C330.447 170.636 345.031 172.086 346.461 173.625L346.315 175.796C345.173 175.472 343.991 175.469 342.832 175.233L331.875 173.407L331.875 173.25L334.625 173.25C334.362 172.817 334.458 173.015 334.258 172.505C333.989 171.819 333.266 171.563 332.625 171.25C332.001 171.305 331.241 171.467 330.658 171.209C330.182 170.999 330.574 171.07 329.954 171.025L329.5 171C329.011 170.932 328.662 170.8 328.153 170.804L327.788 170.818L327.797 170.437Z"/>
	<path fill="#FCF8EB" transform="scale(0.5 0.5)" d="M328.177 230.291C328.695 231.322 329.85 231.877 330.909 232.245C334.598 233.529 339.698 233.89 343.6 233.867C344.946 233.859 346.47 233.487 347.777 233.607C348.176 233.643 348.296 233.687 348.551 233.97C348.461 234.66 348.533 235.425 348.547 236.125C342.526 236.75 336.437 236.908 330.608 234.899C329.35 234.465 327.794 234.03 327.18 232.75C327.204 231.976 327.208 231.348 327.531 230.625L328.177 230.291Z"/>
	<defs>
		<linearGradient id="gradient_5" gradientUnits="userSpaceOnUse" x1="319.10858" y1="209.82265" x2="307.14941" y2="211.22169">
			<stop offset="0" stop-color="#FFEDCF"/>
			<stop offset="1" stop-color="#F0F8F3"/>
		</linearGradient>
	</defs>
	<path fill="url(#gradient_5)" transform="scale(0.5 0.5)" d="M311.418 174.448L311.793 174.425L311.998 174.853C312.216 175.315 312.356 175.768 312.509 176.255C312.697 176.851 312.923 177.347 313.237 177.888C313.451 178.259 313.596 178.61 313.753 179.005C314.206 179.09 314.527 179.12 314.983 179.047C315.168 179.291 315.401 179.505 315.536 179.779C315.785 180.284 315.419 180.77 315.938 181.188C315.952 180.848 315.956 180.64 315.848 180.316C315.62 179.632 315.749 178.96 315.5 178.25C315.337 177.784 315.288 177.235 315.211 176.75L315.337 176.383C316.23 178.534 316.488 180.781 316.633 183.091C317.022 189.268 316.574 195.453 316.526 201.625L316.26 225.654C316.126 229.903 316.35 235.591 314.77 239.532C314.066 241.287 312.134 242.397 310.5 243.132C310.209 242.827 309.964 242.553 309.746 242.192C310.534 241.198 311.404 240.17 311.945 239.017C312.688 237.429 312.849 235.467 312.953 233.733C313.151 230.448 313.014 227.093 313.017 223.798L313.037 205.534L313.05 189.355C313.05 186.326 313.19 183.193 312.948 180.179C312.786 178.166 312.126 176.319 311.418 174.448Z"/>
	<path fill="#FCD6B4" transform="scale(0.5 0.5)" d="M114.542 348.134C113.832 344.766 113.232 341.058 113.638 337.621C113.927 335.18 114.179 332.581 114.99 330.25C116.897 324.769 122.065 321.275 127.852 321.472C129.494 321.527 131.178 322.093 132.806 322.367C137.147 323.098 143.061 323.207 147.088 321.205C150.161 319.678 153.114 316.766 154.184 313.453C155.049 310.778 154.846 307.27 153.339 304.878C152.276 303.188 150.599 301.909 149.097 300.624C143.699 296.008 137.77 292.08 134.43 285.618C131.582 280.11 130.391 274.594 132.367 268.516C134.053 263.326 136.952 259.711 141.875 257.281C145.546 255.469 149.497 254.821 153.414 256.202C156.511 257.293 159.777 260.294 161.173 263.288C162.45 266.024 162.559 269.42 161.42 272.218C160.675 274.049 159.299 275.721 157.409 276.435C156.087 276.935 153.775 277.109 152.493 276.504C152.028 275.087 153.973 273.239 153.872 271.418C153.778 269.717 153.283 268.023 151.967 266.877C150.808 265.868 149.302 265.265 147.75 265.499C146.389 265.705 144.947 266.936 144.125 267.974C142.204 270.401 141.59 275.072 142.014 278.091C142.833 283.92 149.944 288.031 154.229 291.296C159.026 294.952 163.691 300.076 164.471 306.278C165.148 311.658 164.534 317.454 161.091 321.852C156.169 328.139 148.8 331.545 141 332.564C137.749 332.989 134.503 332.521 131.25 332.737C129.214 332.873 127.503 333.575 126.189 335.154C124.29 337.437 123.544 341.276 123.803 344.202C124.066 347.17 125.144 350.356 127.525 352.285C129.69 354.038 133.087 355.196 135.876 354.838L136.25 354.785C137.925 354.563 139.447 354.139 141.03 353.554C146.237 351.631 153.228 346.692 154.955 341.237C155.425 339.754 155.166 337.5 155.856 336.244C156.088 335.822 157.014 335.6 157.47 335.51C159.187 335.172 160.565 335.345 162.006 336.369C163.497 337.428 165.219 339.128 165.542 340.966L165.312 341.947C164.622 341.878 163.892 341.607 163.332 342.125C161.158 344.134 159.641 347.431 157.853 349.807C154.021 354.9 147.758 357.873 141.824 359.71C139.977 360.282 137.973 360.936 136.041 361.125C134.604 361.265 133.274 361.054 131.875 360.75C127.701 359.841 124.053 357.823 121.332 354.479C120.265 353.167 119.122 351.823 118.241 350.375C117.615 349.347 117.314 348.33 116.563 347.35L115.875 346.373L115.111 346.672L114.542 348.134Z"/>
	<defs>
		<linearGradient id="gradient_6" gradientUnits="userSpaceOnUse" x1="191.45787" y1="238.91571" x2="152.28708" y2="178.77345">
			<stop offset="0" stop-color="#FCC8A8"/>
			<stop offset="1" stop-color="#FCE6C2"/>
		</linearGradient>
	</defs>
	<path fill="url(#gradient_6)" transform="scale(0.5 0.5)" d="M159.607 173.632C162.285 171.973 164.885 171.169 167.912 170.354C173.349 168.891 181.23 168.516 186.224 171.431C188.474 172.744 190.648 174.867 191.926 177.151C193.25 178.833 194.068 181.484 194.368 183.598C194.68 185.801 194.599 188.155 194.617 190.379L194.654 201.13L194.593 217.124C194.55 219.946 194.637 222.835 194.299 225.639C193.391 233.166 190.98 239.303 184.825 244.057C178.827 248.689 171.023 250.429 163.557 249.394C159.013 248.764 156.134 246.611 153.468 242.975C153.002 242.339 151.625 240.555 151.632 239.803C148.215 234.946 149.242 223.493 149.398 217.686L149.529 207.094C149.368 204.4 149.503 201.625 149.51 198.924C149.52 194.678 149.472 190.654 150.482 186.5C151.755 181.266 154.949 176.467 159.607 173.632Z"/>
	<path fill="#FBF0E1" transform="scale(0.5 0.5)" d="M175.008 184.102C174.722 183.785 174.561 183.411 174.123 183.375L174.378 182.886C174.611 182.895 175.244 182.841 175.427 182.925C175.877 183.129 175.816 183.359 176.368 183.414C177.508 183.527 178.54 185.188 179.196 186.058C181.115 188.604 180.869 194.774 181.14 197.927L180.902 198.377L180.5 198L180.5 196.125L180.275 196.172L180.225 196.437C179.932 197.753 179.676 198.491 178.629 199.375C177.855 201.45 177.869 203.538 177.865 205.713C177.857 209.103 178.088 212.659 177.821 216.03C177.745 217.11 177.69 218.108 177.356 219.148L177.47 198.843C177.483 195.173 177.985 190.648 177.065 187.074C176.738 185.807 175.885 185.282 175.148 184.304L175.008 184.102Z"/>
	<defs>
		<linearGradient id="gradient_7" gradientUnits="userSpaceOnUse" x1="153.95413" y1="228.66566" x2="148.11855" y2="227.84456">
			<stop offset="0" stop-color="#FFE6CD"/>
			<stop offset="1" stop-color="#FDF9E2"/>
		</linearGradient>
	</defs>
	<path fill="url(#gradient_7)" transform="scale(0.5 0.5)" d="M149.529 207.094C149.69 206.445 149.867 205.806 149.932 205.138C150.264 208.799 150.002 212.615 149.929 216.263L150.072 216.864C150.14 217.172 150.134 217.457 150.145 217.771C150.175 218.587 150.419 219.269 150.697 220.029L150.989 220.081C151.482 220.207 151.734 220.441 152.125 220.75C152.622 218.9 152.323 216.085 152 214.25C151.916 213.773 152.113 213.536 152.25 213.125C152.538 212.261 151.935 211.347 152.5 210.5C152.477 209.993 152.265 209.441 152.25 209L152.312 208.562L152.648 208.762C153.091 210.708 152.872 212.625 152.831 214.602L152.193 228.944C152.187 230.787 152.142 232.682 152.302 234.518C152.417 235.834 152.749 237.043 152.717 238.375L152.377 238.875L152.625 239.127L152.377 239.5L152.312 240.376L152.057 239.67L151.632 239.803C148.215 234.946 149.242 223.493 149.398 217.686L149.529 207.094Z"/>
	<path fill="#FBF0E1" transform="scale(0.5 0.5)" d="M159.607 173.632C162.285 171.973 164.885 171.169 167.912 170.354C173.349 168.891 181.23 168.516 186.224 171.431C188.474 172.744 190.648 174.867 191.926 177.151L191.669 177.207C191.322 176.957 191.068 176.788 190.667 176.625C190.562 176.931 190.496 177.11 190.5 177.439L191 177.5L191.104 177.834L190.62 178.2C190.264 177.966 190.375 178.078 190.132 177.789C188.7 176.08 186.84 174.667 184.971 173.463C180.58 170.635 173.476 170.963 168.625 172.466C166.42 173.149 164.297 174.465 162.062 174.972L162.251 174.562C162.717 174.331 163.157 174.277 163.633 174.098L163.875 174L165.126 173.438L162.628 173.346C162.265 172.912 162.465 173.084 162.046 172.81L160.118 173.842L159.607 173.632Z"/>
	<path fill="#FDF4DC" transform="scale(0.5 0.5)" d="M174.044 176.125C174.485 176.069 174.931 176.032 175.375 176.069C177.968 176.281 181.762 178.225 183.292 180.295C184.176 181.49 184.61 182.853 184.768 184.317C185.524 191.353 184.675 198.827 184.653 205.913L184.725 220.114C184.742 222.875 184.954 225.84 184.554 228.572C184.324 230.141 184.054 231.591 183.625 233.12L183.439 232.25C183.682 231.924 183.608 232.096 183.687 231.699L183.75 231.375C183.925 230.841 184.05 230.417 184.152 229.861L184.25 227.75C184.683 227.101 184.5 226.117 184.5 225.339L184.5 220.091L184.5 195.3C183.738 195.684 183.049 196.158 182.342 196.634L182.182 198.555L181.793 198.629L181.627 198.25L181.866 197.875C182.099 197.271 182.011 195.918 182.06 195.226C182.339 191.23 183.107 185.909 180.957 182.308L180.768 182C179.181 179.365 176.415 178.166 173.96 176.529L174.044 176.125Z"/>
	<path fill="#FCF8EB" transform="scale(0.5 0.5)" d="M177.821 216.03L177.97 216.31C178.334 216.85 179.055 217.316 179.705 217.398L179.988 217.412L180.375 217.627L180.75 217.5L180.75 215.125L181.161 215.256C180.828 219.446 180.99 223.894 180.063 228L179.979 228.407C179.461 230.824 178.016 233.742 175.844 235.064L175 235.476L174.671 235.624C172.426 236.599 169.749 236.917 167.438 235.977C166.055 235.413 164.381 234.091 163.909 232.622C163.777 232.21 164.068 231.503 164.171 231.08L164.911 230.476C165.761 231.797 166.871 232.795 168.375 233.331C169.784 233.832 171.407 233.732 172.735 233.052C174.498 232.149 176.072 230.39 176.701 228.508L176.821 228.125C177.649 225.527 177.318 221.901 177.356 219.148C177.69 218.108 177.745 217.11 177.821 216.03Z"/>
	<path fill="#02294C" transform="scale(0.5 0.5)" d="M164.911 230.476C164.048 227.765 164.207 224.578 164.209 221.759L164.312 209.589C164.342 203.965 163.928 197.877 164.649 192.315L164.71 191.875C164.86 190.742 165.037 189.649 165.374 188.555C165.916 186.792 167.01 185.492 168.661 184.645C170.831 183.533 172.724 183.405 175.008 184.102L175.148 184.304C175.885 185.282 176.738 185.807 177.065 187.074C177.985 190.648 177.483 195.173 177.47 198.843L177.356 219.148C177.318 221.901 177.649 225.527 176.821 228.125L176.701 228.508C176.072 230.39 174.498 232.149 172.735 233.052C171.407 233.732 169.784 233.832 168.375 233.331C166.871 232.795 165.761 231.797 164.911 230.476Z"/>
	<path fill="#FCD6B4" transform="scale(0.5 0.5)" d="M208.604 326.17C207.798 315.638 208.124 304.922 208.379 294.376C208.562 286.777 208.248 278.553 210.283 271.165C211 268.563 212.509 265.895 214.156 263.77C217.601 259.324 223.102 256.221 228.677 255.536C235.479 254.701 241.219 255.91 246.687 260.142C249.703 262.079 251.72 265.785 252.546 269.211C253.078 271.423 253.029 273.762 253.042 276.023L252.942 285.633L252.304 311.469C252.086 318.466 252.519 325.399 251.455 332.354C251.033 335.116 250.095 337.722 248.598 340.09C246.245 343.809 240.615 347.513 236.375 348.468C230.711 349.744 223.733 349.151 218.848 345.863C213.342 342.157 210.472 337.461 209.225 330.953L208.604 326.17Z"/>
	<path fill="#FDF4DC" transform="scale(0.5 0.5)" d="M231.781 262.619C234.789 262.808 237.379 263.297 239.625 265.514C241.027 266.898 242.302 268.824 242.856 270.712C244.466 276.195 243.664 282.737 243.578 288.425L243.42 305.125L243.25 305L243.25 289.125L243.25 283.625L243.438 283.188L243.29 282.835C243.455 282.391 243.473 282.092 243.5 281.625C243 281.93 242.533 282.414 241.981 282.6C241.708 282.691 241.551 282.789 241.317 282.957L241.13 285.161L240.708 285.078C240.533 284.093 240.828 282.887 240.886 281.875C241.104 278.023 241.272 272.821 239.376 269.367C238.284 267.38 235.951 266.032 233.827 265.417L233.463 265.314C231.831 264.812 230.194 264.907 228.5 264.909L228.375 264.75C229.672 264.736 231.743 264.465 232.939 264.863C233.42 265.024 233.657 265.199 234.191 265.2C234.903 265.201 235.064 265.714 235.875 265.627L235.823 265.247C236.058 264.891 236.267 264.63 236.58 264.333L236.876 264.062C236.365 263.788 235.9 263.571 235.341 263.409L234.755 263.245C233.262 262.666 231.244 263.075 229.609 262.896L231.781 262.619Z"/>
	<path fill="#FCF8EB" transform="scale(0.5 0.5)" d="M231.312 269.98C230.88 269.659 230.677 269.379 230.123 269.375L230.167 268.875L231.57 268.649C233.057 268.428 235.23 269.463 236.34 270.41C236.633 270.66 236.872 270.926 237.125 271.214L237.338 271.452C240.759 275.45 238.042 282.144 239.361 286.745L238.974 287.883C238.634 287.492 238.719 287.127 238.688 286.624C238.404 286.961 236.899 288.076 236.899 288.078C236.784 288.79 236.611 289.258 236.265 289.888C236.272 290.551 236.229 290.936 236.612 291.505C236.564 292.989 236.094 294.383 236.002 295.875C235.857 298.225 236.189 300.551 235.873 302.877C235.666 304.401 235.859 306.154 235.826 307.704C235.821 307.947 235.701 308.765 235.784 308.943C235.961 309.326 236.28 309.191 236.23 309.688C236.175 310.234 236.346 310.929 236.428 311.48C236.499 311.957 236.631 312.197 236.887 312.591L237.122 312.227C237.371 311.851 237.542 311.713 237.972 311.552L238.5 311.625L238.5 308.875L238.872 309L238.858 316.589C239.003 321.452 239.516 328.804 235.497 332.38C234.169 333.562 232.56 334.308 230.748 334.176C228.829 334.035 227.391 333.617 225.877 332.375C225.952 331.839 226.087 331.568 226.388 331.12L227.057 330.819L228.162 331.16C229.648 331.544 231.202 331.341 232.5 330.48C233.671 329.702 234.217 328.574 234.522 327.239L234.602 326.875C235.178 324.383 235.074 321.632 235.135 319.079L235.371 305.472C235.561 296.289 236.242 287.073 235.916 277.887C235.863 276.403 235.84 274.554 235.257 273.173C234.508 271.398 233.018 270.623 231.312 269.98Z"/>
	<path fill="#FCF8EB" transform="scale(0.5 0.5)" d="M208.604 326.17C207.798 315.638 208.124 304.922 208.379 294.376C208.562 286.777 208.248 278.553 210.283 271.165C211 268.563 212.509 265.895 214.156 263.77C217.601 259.324 223.102 256.221 228.677 255.536C235.479 254.701 241.219 255.91 246.687 260.142L246.188 260.374L245.625 259.75C244.981 259.902 244.605 259.95 244.124 260.438L244.351 260.541C244.627 260.679 244.778 260.812 244.99 261.028L244.75 261.289C243.025 260.562 241.452 259.488 239.699 258.832C235.272 257.176 229.097 257.27 224.687 259.034C220.321 260.781 216.829 263.096 214.922 267.668C214.736 268.114 214.657 268.602 214.555 269.071C214.229 270.58 213.348 272.202 212.713 273.613C212.307 274.517 212.306 275.856 212.16 276.837L211.902 280.146C211.638 282.476 212.325 291.425 211.612 292.695L211.25 292.5L211.188 291.062C210.65 290.936 210.285 290.789 209.75 290.998C208.426 292.47 208.679 295.835 208.786 297.756C208.831 298.571 209.014 299.202 208.562 299.938C208.86 300.5 208.91 300.785 208.725 301.414L208.605 301.734C208.052 303.5 208.465 306.794 208.481 308.713C208.487 309.491 208.375 310.409 208.696 311.121C209.37 312.615 208.189 314.754 209.072 316.125L208.909 316.495C208.414 317.728 208.758 321.028 208.988 322.341C209.163 323.343 208.932 324.35 209.195 325.353L208.895 326.2L208.604 326.17Z"/>
	<path fill="#02294C" transform="scale(0.5 0.5)" d="M231.312 269.98C233.018 270.623 234.508 271.398 235.257 273.173C235.84 274.554 235.863 276.403 235.916 277.887C236.242 287.073 235.561 296.289 235.371 305.472L235.135 319.079C235.074 321.632 235.178 324.383 234.602 326.875L234.522 327.239C234.217 328.574 233.671 329.702 232.5 330.48C231.202 331.341 229.648 331.544 228.162 331.16L227.057 330.819C225.959 330.149 224.848 329.424 224.074 328.373C223.462 327.541 223.284 326.752 223.193 325.739C222.936 322.894 223.054 319.991 223.063 317.136L223.122 302.846L223.173 288.195C223.192 285.406 223.058 282.486 223.403 279.72C223.607 278.081 223.789 276.432 224.291 274.85C224.88 272.994 225.829 271.441 227.636 270.555L227.937 270.414C228.99 269.909 230.167 269.996 231.312 269.98Z"/>
	<defs>
		<linearGradient id="gradient_8" gradientUnits="userSpaceOnUse" x1="138.91548" y1="274.54178" x2="72.073776" y2="220.2101">
			<stop offset="0" stop-color="#FDC8A6"/>
			<stop offset="1" stop-color="#FBE9C8"/>
		</linearGradient>
	</defs>
	<path fill="url(#gradient_8)" transform="scale(0.5 0.5)" d="M112.313 190.18C117.997 187.664 127.224 185.456 133.197 187.718C134.848 188.344 136.465 189.71 137.459 191.151C138.828 192.642 139.963 194.908 140.366 196.898C140.969 199.871 140.547 203.695 140.53 206.738L140.389 222.181C139.885 233.793 137.008 243.903 128.184 252.024C124.418 255.49 119.098 258.86 114.097 260.129C111.487 260.792 108.669 260.989 105.991 261.242L105.765 292.139C105.775 293.14 106.499 300.121 106.324 300.473C107.255 303.771 108.767 305.699 111.592 307.556L110.262 308.638C111.041 309.051 111.452 309.569 111.998 310.25L99.4532 311.854C97.8254 312.044 94.2359 312.049 92.875 312.966C92.6888 313.091 92.6014 313.322 92.4646 313.5C92.6211 314.67 92.9553 315.904 93.9546 316.641C95.2004 317.559 97.5293 317.713 98.3647 318.875C97.8797 319.409 97.3116 319.459 96.625 319.509C94.2219 319.685 92.2483 319.398 90.3815 317.755C88.8276 316.388 87.4502 314.164 86.7816 312.198C86.3123 311.47 85.7615 310.672 85.9802 309.75C86.1471 309.047 86.9145 308.119 87.3125 307.508C88.1526 306.218 89.0828 304.776 89.5142 303.281C90.0511 301.421 89.973 299.378 89.9781 297.461L89.9623 289.704L89.9344 237.81L89.9655 221.803C89.9694 218.977 90.1749 215.974 89.8589 213.168C89.617 211.021 88.8754 209.66 87.7822 207.845L87.7555 207.845L84.633 203.958C88.7361 200.221 94.08 197.854 99.073 195.572C103.426 193.583 107.742 191.625 112.313 190.18Z"/>
	<path fill="#E7C195" transform="scale(0.5 0.5)" d="M101.591 204.375C101.906 204.788 101.67 205.522 101.872 206C102.043 206.403 102.233 206.682 102.369 207.127C101.002 212.622 102.353 218.76 101.663 224.375L101.16 223.75C100.942 217.365 100.569 210.707 101.591 204.375Z"/>
	<path fill="#FBF0E1" transform="scale(0.5 0.5)" d="M110.262 308.638L108.75 307.993C107.843 307.624 107.314 307.256 106.706 306.482C105.509 304.959 105.154 303.019 105.372 301.125L106.324 300.473C107.255 303.771 108.767 305.699 111.592 307.556L110.262 308.638Z"/>
	<path fill="#FDF4DC" transform="scale(0.5 0.5)" d="M123 192.375L123.614 192.304C124.886 193.128 126.211 193.969 127.166 195.165L127.375 195.432C129.48 198.058 129.71 200.353 129.681 203.616C129.672 204.638 129.554 214.331 129.25 214.625L129.25 206.679C129.25 205.798 129.497 204.26 128.903 203.634L128.253 204.322C127.951 204.818 128.121 204.73 127.643 205.082L127.625 205.044C127 205.983 127.379 207.385 127.154 208.478C126.979 209.333 126.974 210.2 126.936 211.07L126.65 211C126.916 207.111 127.675 201.591 125.653 198.052C124.743 196.458 122.299 194.464 120.488 194.004L120.001 193.89L120.25 193.75C121.236 193.984 122.254 194.418 123.113 194.956L123.373 195.125C123.362 194.487 123.41 194.467 122.989 193.999C123.416 193.501 123.526 193.465 124.155 193.255C123.922 192.683 123.533 192.642 123 192.375Z"/>
	<path fill="#FDF4DC" transform="scale(0.5 0.5)" d="M112.313 190.18C117.997 187.664 127.224 185.456 133.197 187.718C134.848 188.344 136.465 189.71 137.459 191.151C136.537 191.163 135.661 189.774 134.924 189.197C134.426 188.807 133.89 188.44 133.253 188.495L132.661 189.308L132.874 189.688L134.375 190.5L134.375 190.832C133.401 190.337 132.379 189.736 131.291 189.559C127.246 188.904 122.547 188.814 118.646 190.325L115.787 191.251L115.625 191C115.949 190.787 116.175 190.632 116.562 190.555C117.186 190.43 117.686 190.164 118.25 189.875L117.865 188.945L117.524 188.89L117.366 189.618C116.42 189.95 116.397 190.072 115.429 189.662C114.466 189.683 113.495 190.146 112.647 190.587L112.346 190.747L112.313 190.18Z"/>
	<path fill="#FCF8EB" transform="scale(0.5 0.5)" d="M90.5848 289.491C90.6033 290.57 90.5581 291.608 90.9201 292.638L92.1542 293.098C92.9009 292.346 92.5 287.684 92.5 286.375C93.2716 287.775 92.7685 300.46 92.3613 302.594C91.5971 306.598 89.958 309.579 86.7816 312.198C86.3123 311.47 85.7615 310.672 85.9802 309.75C86.1471 309.047 86.9145 308.119 87.3125 307.508C88.1526 306.218 89.0828 304.776 89.5142 303.281C90.0511 301.421 89.973 299.378 89.9781 297.461L89.9623 289.704L90.5848 289.491Z"/>
	<path fill="#FDF4DC" transform="scale(0.5 0.5)" d="M87.7822 207.845C88.8744 208.167 88.6096 209.255 89.774 208.985L90.0979 208.329L90.4995 208.21L90.875 207.698C91.5824 208.588 92.3064 209.366 92.6063 210.487C93.5417 213.982 92.846 218.273 92.9055 221.875C92.9398 223.949 93.3583 226.326 93.1289 228.363L93.0285 229.041L92.75 229L92.75 226.125C92.1664 226.052 92.275 226.076 91.8174 226.345L91.5802 225.905L91.362 226.115C91.0615 226.399 91.1898 226.293 90.873 226.513C90.8668 227.331 90.9458 228.14 90.5673 228.888L90.7239 229.324C90.9155 229.885 90.8686 230.245 90.7784 230.82L90.5 230.75L90.4375 229.624L90.375 283.127L90.8135 283.51L90.7529 283.846C90.6061 284.805 90.7665 283.628 90.7833 284.678L90.7139 284.954C90.598 285.549 90.8891 286.116 90.8745 286.733C90.8522 287.67 90.6055 288.559 90.5848 289.491L89.9623 289.704L89.9344 237.81L89.9655 221.803C89.9694 218.977 90.1749 215.974 89.8589 213.168C89.617 211.021 88.8754 209.66 87.7822 207.845Z"/>
	<path fill="#FCF8EB" transform="scale(0.5 0.5)" d="M116.92 199.643L116.123 199.375L115.999 199.001L115.623 198.516C116.096 197.933 116.55 197.852 117.273 197.779C117.986 197.707 118.558 197.789 119.251 197.93L119.577 197.991C121.099 198.309 122.488 199.415 123.32 200.704C125.786 204.528 124.344 208.951 124.961 213.067L124.613 213.162C124.479 212.399 124.462 211.646 124.438 210.874L123.558 211.158C122.983 210.776 122.915 210.71 122.217 210.75L122.013 210.892L122.008 225.722C122.016 228.44 122.329 231.056 121.873 233.751C121.6 235.36 121.995 237.716 121.312 239.188L121.501 239.613L121.275 239.917C120.699 240.733 120.529 241.774 120.113 242.671C119.801 243.346 119.023 244.263 118.858 244.93C118.768 245.292 119.047 246.236 119.125 246.627C119.797 246.623 120.601 245.568 121.075 245.07C121.313 244.819 121.282 244.624 121.438 244.376L121.75 244C121.929 243.732 121.993 243.378 122.055 243.07C122.14 242.645 122.342 242.39 122.5 242C122.629 241.683 122.652 241.497 122.816 241.168C123.066 240.669 123.026 240.37 123.044 239.839C123.06 239.361 123.049 239.721 123.25 239.125C123.399 238.682 123.466 238.205 123.625 237.75L123.873 238C123.6 239.432 123.58 240.8 123.072 242.179C122.931 242.56 122.986 242.402 122.889 242.792C122.154 245.763 118.07 249.022 115.547 250.548C113.471 251.802 111.273 252.471 108.875 252.766C108.261 252.841 107.567 253.019 106.954 252.893C106.731 252.848 106.594 252.78 106.375 252.694C106.099 251.977 106.002 251.808 106.125 251.025C106.472 250.795 106.656 250.714 107.041 250.596C109.269 250.509 111.298 250.02 113.248 248.897C116.891 246.801 119.555 243.836 120.67 239.736C121.085 238.209 121.308 236.638 121.408 235.06C121.767 229.357 121.517 223.473 121.517 217.748C121.518 213.439 121.824 208.85 121.43 204.568C121.347 203.667 121.204 202.783 120.725 202C119.796 200.483 118.579 200.005 116.92 199.643Z"/>
	<path fill="#02294C" transform="scale(0.5 0.5)" d="M116.92 199.643C118.579 200.005 119.796 200.483 120.725 202C121.204 202.783 121.347 203.667 121.43 204.568C121.824 208.85 121.518 213.439 121.517 217.748C121.517 223.473 121.767 229.357 121.408 235.06C121.308 236.638 121.085 238.209 120.67 239.736C119.555 243.836 116.891 246.801 113.248 248.897C111.298 250.02 109.269 250.509 107.041 250.596L106.41 250.363C106.1 248.964 106.237 247.342 106.24 245.91L106.419 236.842C106.6 227.359 105.895 217.249 107.63 207.88C107.833 206.786 108.281 205.728 108.857 204.779C110.616 201.876 113.767 200.471 116.92 199.643Z"/>
	<path fill="#FCD6B4" transform="scale(0.5 0.5)" d="M363.29 264.396C363.35 263.761 363.432 263.193 363.265 262.568C362.79 260.793 363.427 258.737 363.031 256.935C362.879 256.242 363.009 255.544 362.869 254.877C362.514 253.179 362.906 251.52 362.619 249.877C361.872 245.6 362.583 241.21 362.596 236.879L362.601 229.848C362.603 228.556 362.48 227.103 362.702 225.834C363.668 220.308 362.993 214.115 363.032 208.505L363.038 202.75C363.046 202.024 363.244 201.218 363 200.532C362.464 199.024 362.938 196.297 362.756 194.6L362.708 194.18C362.464 191.893 361.612 188.682 360.613 186.616C360.047 185.447 359.267 184.5 358.87 183.25L359.162 182.76L358.875 182.5L358.873 182.013L359.125 181.873L359.432 182.169L359.863 181.875C361.289 182.226 362.989 182.423 364.308 183.045C365.274 183.5 366.307 183.596 367.282 184.021L368.15 184.368C369.189 184.693 370.064 185.256 371.069 185.634C375.236 187.204 379.592 188.699 383.602 190.663C386.536 192.1 389.372 193.983 392.25 195.559C393.483 196.234 394.977 196.485 396.123 197.203C397.215 197.888 398.481 198.816 399.448 199.674C400.284 200.416 401.785 202.385 402.875 202.541L403.288 202.118L403 201.75L402.5 202L402.203 201.75L402.246 201.502L402.751 201.373C403.369 201.599 403.398 201.544 403.688 202.124L404.125 201.964C405.068 203.148 405.825 204.721 406.153 206.208C406.872 209.468 406.481 213.626 406.488 216.975C406.497 221.05 406.782 225.407 406.366 229.448C406.078 232.241 404.387 234.636 402.238 236.362C399.669 238.425 396.829 239.471 393.714 240.408C397.888 246.838 401.661 253.555 403.269 261.125C404.243 265.714 404.236 270.47 404.231 275.136L404.229 288.787C404.234 293.073 404.039 297.455 404.648 301.707C405.243 303.599 405.921 305.423 406.833 307.188C407.408 308.303 408.747 309.86 409.033 311C409.131 311.39 409.006 312.166 408.913 312.558C408.27 314.577 407.302 317.069 405.413 318.245C403.57 319.392 400.929 319.85 398.803 319.341L398.5 319.263L394.778 318.097C396.522 317.398 398.391 317.803 400.156 317.262C401.382 316.886 403.194 316.019 403.703 314.754C403.801 314.509 403.794 314.476 403.646 314.253C403.175 313.549 402.016 312.961 401.199 312.755L400.875 312.679C396.555 311.641 392.014 312.446 387.668 310.939C383.645 309.543 379.899 306.428 376.331 304.125C374.375 302.863 372.273 301.846 370.245 300.709C367.222 299.012 364.32 297.24 361.035 296.077C362.21 294.386 363.594 293.189 364.599 291.312C364.075 287.528 363.968 283.342 363.903 279.515C363.856 276.732 364.026 273.394 363.378 270.687C362.917 268.759 363.008 266.362 363.29 264.396Z"/>
	<path fill="#D9A97F" transform="scale(0.5 0.5)" d="M366.477 230.526C366.916 233.802 366.788 237.265 366.734 240.566C366.319 240.022 366.205 239.321 366.016 238.668L365.904 232.165C366.031 231.545 366.205 231.09 366.477 230.526Z"/>
	<path fill="#FBF0E1" transform="scale(0.5 0.5)" d="M392.671 203.375C393.44 204.475 393.049 205.192 393.25 206.375C393.489 207.779 393.485 209.026 393.487 210.473C393.488 211.119 393.361 212.026 393.597 212.626C394.075 213.844 393.724 215.735 394.076 217.046C394.248 217.688 394.253 218.378 394.302 219.041L394.635 218.844C395.079 219.462 395.184 219.966 395.122 220.75C395.08 221.274 394.931 221.779 394.549 222.132L394.411 221.484C393.641 222.662 393.905 226.564 393.817 228.124C393.767 229.022 393.622 229.836 393.426 230.714L393.44 230.851C393.364 231.392 393.213 231.996 392.789 232.327C393.579 229.817 393.4 227.459 393.483 224.875C393.58 221.85 394.025 218.638 393.552 215.625C392.919 211.588 393.718 207.337 392.671 203.375Z"/>
	<path fill="#FBF0E1" transform="scale(0.5 0.5)" d="M408.913 312.558C408.235 312.338 407.666 312.137 407.178 311.592C405.339 309.536 403.147 305.002 403.355 302.296L404.648 301.707C405.243 303.599 405.921 305.423 406.833 307.188C407.408 308.303 408.747 309.86 409.033 311C409.131 311.39 409.006 312.166 408.913 312.558Z"/>
	<path fill="#E7C195" transform="scale(0.5 0.5)" d="M366.016 238.668C366.205 239.321 366.319 240.022 366.734 240.566L367.916 269.438C367.581 268.553 367.9 267.763 367.75 266.875C367.388 264.732 367.395 262.686 367.189 260.5C367.012 258.634 366.867 256.5 366.877 254.625L366.939 254.25C367.054 253.514 367.075 252.485 366.841 251.781C366.466 250.658 366.74 248.607 366.75 247.375C366.025 248.822 366.615 259.063 366.556 261.522C366.528 262.683 365.942 263.987 366.25 265.125C366.92 267.6 366.741 270.789 366.431 273.39C366.315 271.4 366.499 268.883 366.005 266.974L365.989 255.113C366.394 254.4 366.029 240.652 366.016 238.668Z"/>
	<path fill="#FBF0E1" transform="scale(0.5 0.5)" d="M363.29 264.396C363.671 265.254 363.572 266.118 363.713 267.017C363.923 268.359 363.76 269.834 364.122 271.125C364.408 272.141 364.325 273.042 364.357 274.09C364.372 274.581 364.595 275.007 364.608 275.495L364.609 280.01C364.622 280.498 364.848 280.924 364.861 281.418L364.873 287.375L365.188 287.188L365.25 286.5C365.649 285.502 365.5 284.326 365.5 283.212L365.5 258.75C365.974 258.04 365.712 256.272 365.936 255.319L365.989 255.113L366.005 266.974C365.584 271.622 365.894 276.495 365.883 281.178C365.876 284.583 365.885 288.096 364.599 291.312C364.075 287.528 363.968 283.342 363.903 279.515C363.856 276.732 364.026 273.394 363.378 270.687C362.917 268.759 363.008 266.362 363.29 264.396Z"/>
	<path fill="#E7C195" transform="scale(0.5 0.5)" d="M365.904 232.165C365.521 230.34 365.748 227.952 365.743 226.065L365.695 213.039L365.375 205.377C365.294 203.221 365.429 201.023 365.271 198.875L365.041 190.774C365.049 189.49 364.93 188.1 365.342 186.875C366.069 188.738 365.806 191.713 365.926 193.74L366.672 221.643C366.637 224.557 366.846 227.642 366.477 230.526C366.205 231.09 366.031 231.545 365.904 232.165Z"/>
	<path fill="#FCF8EB" transform="scale(0.5 0.5)" d="M387.289 208.026L387.355 206.543C387.362 206.001 387.169 205.721 386.914 205.262L387.18 205.161C388.229 205.755 388.745 206.426 389.455 207.371C389.946 208.026 390.153 209.102 390.328 209.889C391.197 213.788 390.885 218.508 390.837 222.49C390.815 224.391 390.966 226.605 390.542 228.464C390.173 230.086 388.556 231.652 387.119 232.427C385.877 233.098 384.319 233.199 382.973 232.787C380.552 232.045 376.726 229.568 375.701 227.259C375.259 226.262 375.266 225.177 375.448 224.125L376.207 223.384C376.507 224.584 377.04 225.71 377.909 226.607C379.462 228.212 382.735 230.442 385 230.435C385.979 230.073 386.504 229.675 387.125 228.833C388.345 227.179 387.982 224.195 387.986 222.195C387.994 217.437 388.024 212.74 387.289 208.026Z"/>
	<path fill="#FCF8EB" transform="scale(0.5 0.5)" d="M389.973 271.348C390.06 270.456 390.241 269.434 390.017 268.556L389.894 268.125L390.217 268.289L390.246 268.544C390.307 268.916 390.44 269.172 390.611 269.501L390.52 269.852C390.21 271.099 390.459 273.58 390.776 274.832C390.967 275.588 390.637 276.273 391.022 276.977L390.881 277.278C390.668 277.912 390.819 278.527 390.92 279.17C391.299 279.61 391.655 280.033 392.088 280.421C392.708 280.064 392.653 279.783 393.014 279.238L393.25 279L393.312 277.522C393.641 279.407 393.581 281.436 393.647 283.355C393.788 287.433 393.866 291.511 393.299 295.562C393.069 297.203 392.79 298.899 391.834 300.298C391.038 301.463 389.781 302.103 388.414 302.368C386.051 302.826 381.889 300.855 380.04 299.444C378.423 298.209 376.643 296.782 376.32 294.649L376.237 293C376.56 292.597 376.887 292.242 377.261 291.886C377.72 293.446 378.426 294.956 379.578 296.125C381.171 297.741 384.278 299.749 386.591 299.671C387.502 299.64 388.291 299.159 388.886 298.492C389.664 297.62 390.092 296.555 390.329 295.422C390.773 293.302 390.56 290.748 390.551 288.587L389.973 271.348Z"/>
	<path fill="#02294C" transform="scale(0.5 0.5)" d="M376.207 223.384L375.473 196.572C377.233 196.887 379.115 197.074 380.719 197.929C384.939 200.18 386.022 203.724 387.289 208.026C388.024 212.74 387.994 217.437 387.986 222.195C387.982 224.195 388.345 227.179 387.125 228.833C386.504 229.675 385.979 230.073 385 230.435C382.735 230.442 379.462 228.212 377.909 226.607C377.04 225.71 376.507 224.584 376.207 223.384Z"/>
	<path fill="#02294C" transform="scale(0.5 0.5)" d="M377.261 291.886C377.109 289.919 376.723 287.986 376.618 285.996L376.182 252.676C376.141 247.908 375.476 243.067 376.042 238.352C377.683 238.777 379.429 239.275 380.878 240.176C384.652 242.523 386.448 246.036 387.45 250.255C388.476 254.571 389.024 259.162 389.375 263.582C389.581 266.176 389.608 268.766 389.973 271.348L390.551 288.587C390.56 290.748 390.773 293.302 390.329 295.422C390.092 296.555 389.664 297.62 388.886 298.492C388.291 299.159 387.502 299.64 386.591 299.671C384.278 299.749 381.171 297.741 379.578 296.125C378.426 294.956 377.72 293.446 377.261 291.886Z"/>
	<path fill="#FCD6B4" transform="scale(0.5 0.5)" d="M287.933 345.184C288.351 345.56 288.663 345.915 288.987 346.375C287.85 347.625 282.986 347.367 281.22 347.453C278.749 347.573 262.005 347.591 261.125 347.001C260.869 346.829 260.67 346.584 260.443 346.375C260.059 344.869 262.452 342.684 263.25 341.323C263.787 340.409 264.211 339.358 264.523 338.346C265.103 336.466 265.327 334.516 265.419 332.556L265.517 318.121L265.724 298.232L265.813 280.977C265.809 278.159 266.128 274.842 265.476 272.125C264.818 269.384 262.528 266.78 261.034 264.402L257.019 257.497C262.834 256.825 269.062 257.221 274.937 257.204C282.674 257.182 290.758 256.693 298.438 257.612C301.491 257.978 305.448 259.695 307.358 262.205C308.462 263.657 309.201 265.493 309.533 267.283C309.967 269.623 309.803 272.263 309.796 274.642C309.785 278.293 309.893 282.053 309.379 285.672C308.681 290.59 304.291 296.03 300.379 298.885L300.069 299.109L300.227 299.264C304.351 303.47 306.918 310.312 309.282 315.674C310.387 318.182 311.82 320.968 312.33 323.654C312.756 325.896 312.536 328.475 312.509 330.762C314.821 333.119 317.507 334.517 320.377 336.094L333.5 342.511L339.228 344.811C345.626 347.701 351.432 351.126 358.188 353.288C360.622 354.068 363.487 354.879 366.06 354.868C368.115 354.86 369.857 354.281 371.631 353.291L372.407 352.87C372.453 352.684 373.283 351.945 373.464 351.749C374.516 350.611 375.486 348.867 375.27 347.25C375.137 346.256 374.772 346.043 374.016 345.518C373.909 344.961 373.738 344.402 374.084 343.875C374.196 343.704 375.324 343.189 375.542 343.059C377.074 342.145 378.765 340.8 379.488 339.124L379.625 338.795C380.549 336.752 381.083 334.327 380.631 332.089C380.23 330.103 379.846 327.989 378.679 326.294L378.496 326.585L378.689 327L378.127 327.375L378.126 328.938L377.341 329.062L378.026 329.402L378.251 329.5C378.78 330.653 378.429 333.424 378.169 334.718L378.102 335.026C377.838 336.273 376.916 337.608 375.999 338.499C375.461 339.021 374.938 339.107 374.211 339.115C373.786 339.119 373.416 339.107 372.995 339.186C372.464 339.285 372.135 339.418 371.593 339.282C371.032 339.14 371.359 339.156 370.867 339.154C369.254 339.146 367.392 338.416 365.979 337.628L365.751 337.499L345.014 326.262C343.972 325.802 342.866 325.115 341.906 324.48C340.068 323.266 336.742 322.738 335.532 320.833C334.076 319.315 331.401 318.72 329.785 317.14C328.636 316.017 328.565 314.482 328.607 312.975C328.623 312.391 329.223 312.062 329.641 311.671C331.921 310.204 336.929 310.688 339.652 310.655C338.484 310.16 336.767 310.377 335.5 310.377C334.967 310.022 334.622 310.127 334 310.127L333.688 310.438L331.25 310.377L331 310.625C330.494 310.628 330.719 310.611 330.164 310.689L329.75 310.75C329.432 310.513 329.139 310.3 328.893 309.984C328.499 309.477 327.945 308.739 328.059 308.099C328.19 307.359 328.719 306.856 329.309 306.441C329.88 306.038 330.328 305.562 330.813 305.062L331.125 305.373C331.125 305.645 331.011 305.925 330.938 306.188L330.5 306.377L330.062 306.501L330.832 307.668L331.122 307.625C331.058 306.67 331.59 306.186 331.574 305.319L331.558 304.882L331.016 304.375C331.202 303.621 331.411 303.436 331.973 302.951C335.342 302.319 339.111 302.267 342.547 302.264C349.293 302.258 355.707 302.813 362.015 305.412C365.612 306.894 369.186 309.095 372.397 311.27C376.578 314.102 379.933 317.604 382.678 321.835C386.327 327.809 386.537 334.925 386.491 341.75C386.467 345.291 386.347 349.187 385.436 352.625C384.309 356.883 381.159 360.293 377.375 362.409C371.776 365.538 363.223 365.346 357.173 363.585C348.035 360.924 339.596 355.634 331.007 351.575L318.75 345.753C314.729 343.906 310.73 342.567 307.129 339.903C303.258 337.037 300.249 332.993 297.982 328.776C294.934 323.106 293.821 317.914 293 311.606C292.747 309.656 292.677 307.083 291.922 305.267C291.21 303.553 290.195 302.302 288.391 301.706C286.832 301.192 285.296 301.208 283.678 301.202C283.23 306.038 283.513 311.078 283.527 315.937C283.547 323.315 283.394 330.627 283.942 337.977C284.751 341.239 285.561 342.799 287.933 345.184Z"/>
	<path fill="#FBF0E1" transform="scale(0.5 0.5)" d="M287.933 345.184L287.125 345.572C285.731 345.404 283.98 343.239 282.938 342.231C282.553 341.007 282.591 339.888 282.618 338.625L283.942 337.977C284.751 341.239 285.561 342.799 287.933 345.184Z"/>
	<path fill="#FCF8EB" transform="scale(0.5 0.5)" d="M312.509 330.762C314.821 333.119 317.507 334.517 320.377 336.094L333.5 342.511L339.228 344.811C345.626 347.701 351.432 351.126 358.188 353.288C360.622 354.068 363.487 354.879 366.06 354.868C368.115 354.86 369.857 354.281 371.631 353.291L372.407 352.87L372.601 353.15L371.364 354.058C369.426 355.152 365.951 355.662 363.781 355.08C362.999 354.87 362.183 354.873 361.406 354.622L359.512 354.115C359.201 354.056 358.934 353.993 358.629 353.898L357.762 353.641C357.315 353.526 357.488 353.599 357.15 353.442C356.339 353.067 355.501 352.94 354.709 352.575L351.302 351.216C350.907 351.103 350.601 351.074 350.249 350.838C348.806 349.874 346.846 349.177 345.262 348.381C343.392 347.441 341.484 346.224 339.562 345.438L337.688 344.562C337.234 344.917 337.238 344.852 336.703 344.895C336.638 345.559 336.639 345.565 337 346.125L337.375 346.127C338.001 346.542 338.699 346.861 339.374 347.188L339.874 347.438C340.383 347.772 340.933 347.985 341.423 348.323L341.664 348.5L342 348.689C342.5 348.986 342.972 349.316 343.546 349.462L343.749 349.501C344.367 350.137 345.6 350.919 346.5 351.125L346.875 351.127C347.178 351.382 347.373 351.512 347.758 351.64C348.853 352.006 349.795 352.63 350.875 353L352.5 353.625L353 353.75L353.75 354.125L354.125 354.127C354.472 354.356 354.828 354.562 355.25 354.625C355.738 354.698 355.903 354.794 356.374 354.938C356.836 355.079 357.185 355.087 357.633 355.31C358.114 355.549 357.874 355.466 358.375 355.633L359.5 356L360.062 356.188L360.5 356.127C360.96 356.328 361.33 356.467 361.832 356.488L362.25 356.5C362.857 356.905 366.554 356.95 367.375 356.75C367.953 356.609 368.593 356.647 369.125 356.5L370.438 356.188L370.875 356L371.5 355.75L371.812 355.501L372.125 355.5L372.875 354.627L373.373 354.875C371.299 356.521 369.225 356.825 366.648 357.097C361.301 357.662 354.993 355.053 350.109 353.02C348.506 352.353 346.784 351.745 345.25 350.946C342.075 349.295 339.068 347.27 335.764 345.875C332.471 344.485 329.015 343.411 325.766 341.897C323.806 340.984 321.938 339.752 320 338.764C317.587 337.534 315.162 336.376 313.078 334.604C312.358 333.992 311.593 333.234 311.521 332.25C311.783 331.406 311.762 331.311 312.509 330.762Z"/>
	<defs>
		<linearGradient id="gradient_9" gradientUnits="userSpaceOnUse" x1="352.73209" y1="317.77603" x2="361.23627" y2="304.58398">
			<stop offset="0" stop-color="#FDE4CC"/>
			<stop offset="1" stop-color="#FBFEF2"/>
		</linearGradient>
	</defs>
	<path fill="url(#gradient_9)" transform="scale(0.5 0.5)" d="M331.973 302.951C335.342 302.319 339.111 302.267 342.547 302.264C349.293 302.258 355.707 302.813 362.015 305.412C365.612 306.894 369.186 309.095 372.397 311.27C376.578 314.102 379.933 317.604 382.678 321.835L381.677 322.625C380.366 322.718 378.14 319.477 377.277 318.5C373.986 314.776 369.448 312.026 365.05 309.782C363.689 309.087 362.293 308.221 360.828 307.783C357.678 306.843 354.377 305.449 351.15 304.875C347.989 304.313 344.204 304.436 340.988 304.538C338.739 304.609 336.181 305.394 334 305.054C333.169 304.924 332.4 304.888 331.558 304.882L331.016 304.375C331.202 303.621 331.411 303.436 331.973 302.951Z"/>
	<defs>
		<linearGradient id="gradient_10" gradientUnits="userSpaceOnUse" x1="352.00156" y1="324.12152" x2="349.79926" y2="328.5278">
			<stop offset="0" stop-color="#FBF6DD"/>
			<stop offset="1" stop-color="#FDFFFD"/>
		</linearGradient>
	</defs>
	<path fill="url(#gradient_10)" transform="scale(0.5 0.5)" d="M335.532 320.833C334.076 319.315 331.401 318.72 329.785 317.14C328.636 316.017 328.565 314.482 328.607 312.975C328.623 312.391 329.223 312.062 329.641 311.671C329.98 313.63 330.428 314.581 332.066 315.751C336.826 319.15 342.621 321.599 347.761 324.401C353.816 327.701 359.734 331.632 366.156 334.192C367.71 334.812 370.355 335.661 372.034 335.29C373.386 334.992 374.493 333.705 375.421 332.747L375.659 333.314C375.133 333.775 374.535 334.161 374.373 334.875L374.872 335.625C374.989 335.397 375.138 335.13 375.188 334.876C375.288 334.357 375.229 334.211 375.562 333.751L375.819 334.02C375.817 335.307 375.959 335.783 375.153 336.84L375.392 337.562C374.983 337.935 374.602 338.267 374.075 338.465C372.354 339.109 369.598 338.532 367.938 337.949C365.585 337.121 363.463 335.646 361.25 334.513L335.532 320.833Z"/>
	<path fill="#02294C" transform="scale(0.5 0.5)" d="M283.954 268.001C285.925 267.946 289.276 267.509 290.875 268.841C292.28 270.012 292.728 273.298 292.883 275.051C293.062 277.08 293.008 279.163 292.997 281.199C292.987 283.017 293.052 285.486 292.286 287.151C291.983 287.809 291.416 288.406 290.954 288.959C288.675 290.685 286.529 290.775 283.794 290.748L283.732 278.58C283.733 275.074 283.57 271.49 283.954 268.001Z"/>
	<path fill="#02294C" transform="scale(0.5 0.5)" d="M339.652 310.655C350.041 311.254 358.791 313.374 367.29 319.599C369.125 320.942 371.259 322.469 372.762 324.176C374.442 326.084 375.879 328.34 375.737 330.978C375.705 331.572 375.56 332.14 375.398 332.709L375.421 332.747C374.493 333.705 373.386 334.992 372.034 335.29C370.355 335.661 367.71 334.812 366.156 334.192C359.734 331.632 353.816 327.701 347.761 324.401C342.621 321.599 336.826 319.15 332.066 315.751C330.428 314.581 329.98 313.63 329.641 311.671C331.921 310.204 336.929 310.688 339.652 310.655Z"/>
</svg>
